<?xml version="1.0" encoding="utf-8"?>
<!-- Generator: Adobe Illustrator 23.0.6, SVG Export Plug-In . SVG Version: 6.00 Build 0)  -->
<svg version="1.1" id="Layer_1" xmlns="http://www.w3.org/2000/svg" xmlns:xlink="http://www.w3.org/1999/xlink" x="0px" y="0px"
	 viewBox="0 0 100 125" style="enable-background:new 0 0 100 125;" xml:space="preserve">
<style type="text/css">
	.st0{fill:#4F0E40;}
	.st1{fill-rule:evenodd;clip-rule:evenodd;fill:#4F0E40;}
</style>
<g>
	<path class="st0" d="M49.8,61.2c0-10.2-8.3-18.4-18.5-18.4c-10.2,0-18.5,8.3-18.5,18.5c0,10.2,8.3,18.4,18.5,18.4
		C41.5,79.6,49.8,71.3,49.8,61.2z M70,34.4c0-6.8-5.4-12.3-12.2-12.3c-6.8-0.1-12.3,5.5-12.3,12.3c0,6.7,5.5,12.2,12.2,12.3
		C64.5,46.7,70,41.2,70,34.4z M42.2,26c3.1,0,5.6-2.6,5.6-5.6c0-3.1-2.6-5.6-5.6-5.6c-3.1,0-5.6,2.6-5.6,5.6
		C36.5,23.5,39.1,26,42.2,26z M62.7,68.9c5.2,0,9.4-4.3,9.4-9.5c0-5.2-4.2-9.5-9.4-9.5c-5.2,0-9.4,4.3-9.4,9.6
		C53.3,64.7,57.5,69,62.7,68.9z M74.6,19.7c0-2.4-1.9-4.3-4.2-4.3c-2.3,0-4.2,1.9-4.2,4.2c0,2.3,1.9,4.2,4.2,4.3
		C72.7,24,74.6,22.1,74.6,19.7z M77.7,75.8c1.8,0,3.2-1.4,3.2-3.2c0-1.8-1.4-3.2-3.2-3.2c-1.8,0-3.2,1.4-3.2,3.2
		C74.5,74.3,75.9,75.8,77.7,75.8z"/>
	<path class="st1" d="M49.8,61.2c0,10.2-8.3,18.4-18.5,18.5c-10.2,0-18.5-8.2-18.5-18.4c0-10.1,8.3-18.5,18.5-18.5
		C41.4,42.7,49.8,51,49.8,61.2z M31.2,79.1C41,79.1,49,71.2,49,61.4c0-9.8-7.9-17.8-17.8-17.9c-9.7,0-17.8,8-17.8,17.8
		C13.5,71.1,21.5,79.1,31.2,79.1z"/>
	<path class="st1" d="M70,34.4c0,6.8-5.5,12.2-12.3,12.2c-6.7,0-12.2-5.5-12.2-12.3c0-6.8,5.6-12.3,12.3-12.3
		C64.6,22.2,70.1,27.7,70,34.4z M69.5,34.5c0.1-6.4-5.1-11.8-11.6-11.8c-6.4-0.1-11.7,5.1-11.8,11.6C46,40.7,51.2,46,57.7,46.1
		C64.1,46.1,69.4,41,69.5,34.5z"/>
	<path class="st1" d="M42.2,26c-3.1,0-5.6-2.5-5.6-5.6c0-3.1,2.5-5.6,5.6-5.6c3.1,0,5.6,2.5,5.6,5.6C47.8,23.4,45.2,26,42.2,26z
		 M37.6,20.4c0.1,2.5,2.1,4.5,4.6,4.5c2.6,0,4.6-2.1,4.5-4.7c-0.1-2.5-2.1-4.5-4.6-4.5C39.5,15.8,37.5,17.9,37.6,20.4z"/>
	<path class="st1" d="M62.7,68.9c-5.2,0-9.4-4.2-9.4-9.4c0-5.2,4.2-9.6,9.4-9.6c5.2,0,9.4,4.3,9.4,9.5
		C72.1,64.7,67.9,68.9,62.7,68.9z M71.7,59.4c0-5-4-9-9-9.1c-4.9,0-9,4.1-9,9c0,5,4,9,9,9.1C67.6,68.4,71.7,64.4,71.7,59.4z"/>
	<path class="st1" d="M74.6,19.7c0,2.4-1.9,4.2-4.3,4.2c-2.3,0-4.2-2-4.2-4.3c0-2.3,1.9-4.2,4.2-4.2C72.7,15.5,74.7,17.4,74.6,19.7z
		 M73.8,19.7c0-1.8-1.5-3.4-3.4-3.5c-1.8-0.1-3.5,1.5-3.5,3.4c0,1.9,1.6,3.5,3.5,3.5C72.3,23.1,73.8,21.6,73.8,19.7z"/>
	<path class="st1" d="M77.7,75.8c-1.8,0-3.2-1.5-3.2-3.2c0-1.8,1.5-3.2,3.2-3.2c1.8,0,3.2,1.5,3.2,3.2
		C80.9,74.3,79.4,75.8,77.7,75.8z M75.1,72.6c0,1.4,1.2,2.5,2.6,2.5c1.4,0,2.5-1.1,2.5-2.5c0-1.4-1.1-2.6-2.6-2.5
		C76.2,70,75.1,71.1,75.1,72.6z"/>
	<path class="st0" d="M31.2,79.1c-9.8,0-17.7-8-17.7-17.8c0-9.8,8-17.8,17.8-17.8c9.8,0,17.8,8,17.8,17.9C49,71.2,41,79.1,31.2,79.1
		z M31.2,78.3c9.4,0.1,17.1-7.6,17.1-17c0-9.4-7.6-17.1-17-17.1c-9.3,0-17,7.6-17.1,17C14.2,70.6,21.8,78.3,31.2,78.3z"/>
	<path class="st0" d="M69.5,34.5c-0.1,6.5-5.3,11.7-11.8,11.6C51.2,46,46,40.7,46.1,34.2c0.1-6.4,5.4-11.6,11.8-11.6
		C64.3,22.7,69.5,28,69.5,34.5z M57.8,45.3c6,0,10.9-4.9,10.9-11s-4.9-11-10.9-11c-6,0-11,4.9-11,10.9
		C46.8,40.4,51.7,45.3,57.8,45.3z"/>
	<path class="st0" d="M37.6,20.4c-0.1-2.6,2-4.7,4.5-4.7c2.5,0,4.6,2,4.6,4.5c0.1,2.5-2,4.6-4.5,4.7C39.7,25,37.6,23,37.6,20.4z"/>
	<path class="st0" d="M71.7,59.4c0,5-4.1,9-9,9c-5,0-9-4.1-9-9.1c0-5,4.1-9,9-9C67.7,50.3,71.7,54.4,71.7,59.4z M70.9,59.4
		c0-4.5-3.7-8.3-8.2-8.3c-4.6,0-8.3,3.8-8.3,8.3s3.7,8.3,8.2,8.3C67.2,67.7,70.9,64,70.9,59.4z"/>
	<path class="st0" d="M73.8,19.7c0,1.8-1.6,3.4-3.4,3.4c-1.9,0-3.5-1.6-3.5-3.5c0-1.9,1.6-3.5,3.5-3.4
		C72.3,16.3,73.9,17.9,73.8,19.7z"/>
	<path class="st0" d="M75.1,72.6c0-1.5,1.1-2.6,2.5-2.6c1.4,0,2.6,1.1,2.6,2.5c0,1.4-1.1,2.5-2.5,2.5C76.3,75.1,75.2,74,75.1,72.6z"
		/>
	<path class="st1" d="M31.2,78.3c-9.4-0.1-17-7.8-17-17.2c0.1-9.4,7.7-17,17.1-17c9.4,0,17,7.7,17,17.1
		C48.3,70.8,40.6,78.4,31.2,78.3z"/>
	<path class="st1" d="M57.8,45.3c-6.1,0-11-4.9-11-11c0-6,5-10.9,11-10.9c6,0,10.9,4.9,10.9,11C68.7,40.4,63.8,45.3,57.8,45.3z"/>
	<path class="st1" d="M70.9,59.4c0,4.6-3.7,8.3-8.3,8.3c-4.5,0-8.2-3.7-8.2-8.3s3.8-8.3,8.3-8.3C67.2,51.1,71,54.8,70.9,59.4z"/>
</g>
</svg>
