<?xml version="1.0" encoding="utf-8"?>
<!-- Generator: Adobe Illustrator 23.0.6, SVG Export Plug-In . SVG Version: 6.00 Build 0)  -->
<svg version="1.1" id="Layer_1" xmlns="http://www.w3.org/2000/svg" xmlns:xlink="http://www.w3.org/1999/xlink" x="0px" y="0px"
	 viewBox="0 0 35 43.8" style="enable-background:new 0 0 35 43.8;" xml:space="preserve">
<style type="text/css">
	.st0{fill:#FFD994;}
</style>
<g>
	<path class="st0" d="M14.1,21c-1-0.3-1.8-0.7-2.8-1.4l0,0c-2.8-0.6-5.8,1.7-5.8,4.9c0,2.8,2.2,5,5,5c1.4,0,2.7-0.6,3.6-1.5
		C12.9,24.6,13.9,21.1,14.1,21z"/>
	<path class="st0" d="M3.5,24.5c0-3.4,2.4-6.2,5.6-6.9c-0.5-0.5-0.9-1.1-1.2-1.8c-3.7,1.1-6.4,4.5-6.4,8.6c0,7.6,8.8,11.6,14.6,7.1
		c-0.4-0.5-0.8-1.1-1.1-1.6C10.4,33.6,3.5,30.4,3.5,24.5z"/>
	<path class="st0" d="M17.5,1.5c-8.8,0-12.2,11.1-5.4,16.2l0,0c0.8,0.6,1.8,1.1,2.8,1.4c0.1-0.1,0.7-1.2,1.2-1.8
		c-1-0.3-1.9-0.4-3.1-1.5l0,0c-5-4.2-2-12.3,4.5-12.3c5.2,0,8.5,5.5,6.3,10c0.7,0,1.3,0,2.1,0.1C28.1,7.9,23.9,1.5,17.5,1.5z"/>
	<path class="st0" d="M17.5,5.5c-2.8,0-5,2.2-5,5c0,1.4,0.6,2.7,1.5,3.6c1.2,1.2,3,1.6,4.3,1.4c0.8-0.6,1.8-1,2.7-1.4
		c0.9-0.9,1.5-2.2,1.5-3.6C22.5,7.7,20.3,5.5,17.5,5.5z"/>
	<path class="st0" d="M24.5,19.5c-2.8,0-5,2.2-5,5s2.2,5,5,5s5-2.2,5-5S27.3,19.5,24.5,19.5z"/>
	<path class="st0" d="M24.5,15.5c-5,0-9,4-9,9s4,9,9,9s9-4,9-9S29.5,15.5,24.5,15.5z M24.5,31.5c-3.9,0-7-3.1-7-7s3.1-7,7-7
		s7,3.1,7,7S28.4,31.5,24.5,31.5z"/>
</g>
</svg>
