<?xml version="1.0" encoding="utf-8"?>
<!-- Generator: Adobe Illustrator 23.0.6, SVG Export Plug-In . SVG Version: 6.00 Build 0)  -->
<svg version="1.1" id="Layer_1" xmlns="http://www.w3.org/2000/svg" xmlns:xlink="http://www.w3.org/1999/xlink" x="0px" y="0px"
	 viewBox="0 0 100 125" style="enable-background:new 0 0 100 125;" xml:space="preserve">
<style type="text/css">
	.st0{fill:#3C55D3;}
</style>
<g>
	<path class="st0" d="M14.5,73.1c1.2-0.2,2.3-1.2,2.7-3.5c0.1-0.6,0.1-1.1,0.2-1.7c0.1-0.6,0.2-1.1,0.3-1.6c0.2-1.1,0.4-2,0.8-3
		c0.8-1.9,2-3.3,4-4.1c4.2-1.6,4.6,0.6,4.7,0.6c1.1-2.3,2.5-3.3,3.7-3.9c1.2-0.6,2-0.6,2-0.6c0,0,1.2-0.9-0.5-1.1c0,0-0.7,0.3-2,0.5
		c-1.3,0.1-3.1,0.1-5.3-1.2c0,0,0.2,0.5-0.1,1.2c-0.2,0.3-0.5,0.7-1,1c-0.5,0.3-1.2,0.7-2.3,1c-1.1,0.3-2.1,0.3-3,0.1
		c-0.9-0.2-1.8-0.5-2.6-1c-0.8-0.5-1.7-1.2-2.5-1.9c-0.8-0.7-1.5-1.5-2.4-2.3c-1.7-1.6-3.2-1.6-4.2-1c-1.1,0.6-1.8,1.9-1.9,2.4
		c-0.1,0.3,0,1,0.1,1.8c0.2,0.9,0.7,1.9,1.4,2.9c0.4,0.5,0.8,0.9,1.3,1.3c0.5,0.4,1.2,0.7,1.9,1c1.4,0.5,3.1,0.6,5.3,0.2
		c-1,0.5-1.8,1.1-2.5,1.7c-0.7,0.6-1.2,1.2-1.6,1.9c-0.8,1.3-1.1,2.7-1.1,3.9c0.1,2.5,1.2,4.4,1.7,4.7C12,72.9,13.3,73.4,14.5,73.1z
		"/>
	<path class="st0" d="M32.9,84.5c-0.5-1-0.9-2.1-1.3-3.1c-0.4-1-0.8-1.9-0.9-2.9c-0.3-2-0.1-3.8,1.2-5.6c2.6-3.6,4.3-2,4.3-2
		c-0.2-1.3-0.1-2.3,0.1-3.1c0.2-0.9,0.6-1.6,0.9-2.1c0.7-1.1,1.3-1.6,1.3-1.6c0,0,0.5-1.4-1-0.6c0,0-0.4,0.7-1.4,1.5
		c-1,0.8-2.5,1.7-5.1,1.9c0,0,0.5,0.3,0.6,1c0.1,0.7-0.2,1.9-1.7,3.5c-1.6,1.7-3.3,2.2-5.2,2.3c-2,0.1-4.1-0.5-6.3-0.9
		c-2.2-0.4-3.5,0.3-4.1,1.5c-0.6,1.2-0.5,2.6-0.3,3.1c0.2,0.5,1.5,2.3,3.9,3.1c1.1,0.4,2.5,0.6,3.9,0.2c1.5-0.4,3-1.2,4.5-2.7
		c-2.2,3.8-1.6,6.9-0.3,9c1.4,2,3.4,3,3.9,3c0.5,0.1,1.9-0.2,2.8-1.1C33.4,88,33.8,86.6,32.9,84.5z"/>
	<path class="st0" d="M54.1,88.5c-3.8-2.6-7.5-4.7-7.2-9.2c0.1-2.3,0.8-3.2,1.3-3.7c0.6-0.5,1.1-0.3,1.1-0.3c-1.7-1.8-1.9-3.7-2-4.9
		c0-1.3,0.2-2,0.2-2c0,0-0.3-1.4-1.2,0c0,0,0,0.8-0.4,2c-0.4,1.2-1.2,2.8-3.3,4.4c0,0,0.6,0,1.1,0.5c0.5,0.5,0.8,1.7,0.4,3.9
		c-0.4,2.2-1.5,3.6-3.1,4.8c-1.6,1.2-3.7,1.8-5.8,2.7c-2.1,0.8-2.8,2.1-2.7,3.4c0.1,1.3,1,2.4,1.4,2.7c0.4,0.3,2.6,1.2,5,0.5
		c1.2-0.3,2.4-0.8,3.4-1.9c1-1.1,1.9-2.6,2.4-4.8c0.1,2.2,0.7,3.9,1.5,5.2c0.9,1.2,2,2,3.1,2.6c1.1,0.6,2.3,0.6,3.2,0.7
		c0.9,0,1.6-0.1,1.8-0.2c0.5-0.2,1.5-1.2,1.8-2.4C56.5,91.2,56,89.8,54.1,88.5z"/>
	<path class="st0" d="M76.8,81.1c-0.6-0.4-1.5-0.6-2.6-0.6c-1.2,0-2.3,0-3.3-0.1c-1.1-0.1-2.1-0.2-3.1-0.4c-1.9-0.4-3.5-1.5-4.6-3.4
		c-1.1-1.9-1.1-3.1-0.8-3.8c0.1-0.3,0.3-0.6,0.5-0.7c0.2-0.1,0.3-0.2,0.3-0.2c-1.2-0.3-2.1-0.9-2.8-1.4c-0.7-0.6-1.2-1.1-1.5-1.7
		c-0.7-1-0.9-1.8-0.9-1.8s-0.3-0.3-0.5-0.3c-0.3-0.1-0.5,0-0.5,0.9c0,0,0.4,0.7,0.8,1.9c0.2,0.6,0.3,1.4,0.3,2.3
		c0,0.9-0.2,2-0.7,3.1c0,0,0.1-0.1,0.3-0.1c0.2,0,0.5,0,0.8,0c0.7,0.2,1.6,0.9,2.4,3c0.9,2.1,0.7,3.9-0.1,5.8
		c-0.4,0.9-0.9,1.7-1.5,2.6c-0.6,0.9-1.3,1.8-1.9,2.7c-1.3,1.8-1.2,3.3-0.4,4.3c0.8,1,2.1,1.6,2.7,1.6c0.5,0,2.8-0.5,4.5-2.2
		c1.7-1.8,2.8-4.6,1.3-8.7c2.5,3.5,5.6,4.4,8.1,4c0.6-0.1,1.2-0.3,1.7-0.4c0.5-0.2,0.9-0.5,1.3-0.7c0.8-0.5,1.2-1,1.4-1.2
		c0.1-0.2,0.3-0.7,0.4-1.2c0.1-0.5,0-1.2-0.2-1.8C77.8,82,77.4,81.4,76.8,81.1z"/>
	<path class="st0" d="M91,62.5c-0.5-0.4-1.1-0.6-1.8-0.6c-0.7,0-1.6,0.3-2.6,0.9c-1,0.6-1.9,1.2-2.8,1.8c-1,0.5-1.9,1-2.8,1.3
		c-0.5,0.2-0.9,0.3-1.4,0.4c-0.5,0.1-1,0.1-1.4,0.1c-1,0-1.9-0.3-2.9-0.8c-2-1-2.6-2-2.7-2.7c-0.1-0.3,0-0.6,0-0.9
		c0.1-0.2,0.1-0.3,0.1-0.3c-1.1,0.4-2.2,0.4-3.1,0.3c-0.9-0.1-1.6-0.3-2.2-0.6c-1.2-0.5-1.8-1-1.8-1c0,0-0.4-0.1-0.6,0
		c-0.3,0.1-0.4,0.3,0.1,1c0,0,0.7,0.3,1.7,1.2c0.5,0.4,1,1,1.5,1.8c0.2,0.4,0.5,0.8,0.7,1.4c0.2,0.5,0.3,1,0.4,1.7
		c0,0,0.3-0.5,1-0.7c0.7-0.2,1.8-0.1,3.7,1.2c1.8,1.3,2.7,2.9,3.1,4.9c0.3,1.9,0.2,4.2,0,6.4c-0.1,2.3,0.8,3.4,2,3.8
		c1.2,0.4,2.6,0.1,3.1-0.1c0.5-0.2,2-1.9,2.6-4.3c0.2-1.2,0.2-2.6-0.4-3.9c-0.3-0.7-0.7-1.4-1.2-2.1c-0.6-0.7-1.3-1.4-2.1-2
		c4,1.6,7.1,0.7,8.9-1c1.9-1.6,2.5-3.8,2.5-4.3C92.5,64.6,92.1,63.3,91,62.5z"/>
	<path class="st0" d="M94.5,55.4c-0.4-1.1-1.2-2.3-2.4-3.1c-1.2-0.9-2.8-1.5-5-1.7c2.2-0.4,3.7-1.2,4.8-2.2c1.1-1,1.9-2.2,2.1-3.4
		c0.3-1.2,0.3-2.3,0.2-3.2c-0.1-0.9-0.4-1.5-0.5-1.7c-0.3-0.4-1.4-1.3-2.6-1.4c-1.2-0.1-2.6,0.5-3.6,2.6c-0.2,0.5-0.5,1-0.7,1.5
		c-0.2,0.5-0.5,1-0.8,1.5c-0.5,1-1,1.9-1.6,2.6c-1.3,1.6-2.8,2.6-5.1,2.8c-2.2,0.2-3.3-0.3-3.8-0.8c-0.3-0.3-0.4-0.5-0.4-0.7
		c0-0.2,0-0.4,0-0.4c-1.7,1.9-3.4,2.5-4.6,2.7c-1.3,0.2-2.1,0.1-2.1,0.1c0,0-1.4,0.5,0.1,1.2c0,0,0.8-0.1,2.1,0.1
		c1.3,0.2,3.1,0.8,4.8,2.7c0,0-0.1-0.6,0.4-1.1c0.5-0.5,1.5-1.1,3.7-1c1.1,0,2.1,0.3,2.9,0.7c0.4,0.2,0.8,0.5,1.2,0.8
		c0.4,0.3,0.7,0.6,1,1c1.3,1.4,2.4,3.4,3.5,5.4c1.1,2,2.5,2.4,3.8,2.1c1.2-0.3,2.3-1.3,2.5-1.8C94.9,60,95.3,57.7,94.5,55.4z"/>
	<path class="st0" d="M76.7,22.5c0.2,1.1,0.3,2.3,0.4,3.3c0.1,1.1,0.2,2.1,0.1,3.1c-0.2,2-0.9,3.7-2.7,5.1c-3.6,2.7-4.6,0.7-4.6,0.7
		c-0.2,1.3-0.6,2.2-1,3c-0.4,0.8-1,1.3-1.4,1.8c-0.9,0.9-1.7,1.2-1.7,1.2c0,0-0.9,1.2,0.8,0.9c0,0,0.6-0.5,1.8-1
		c1.2-0.5,2.9-1,5.4-0.4c0,0-0.4-0.4-0.3-1.2c0.1-0.7,0.7-1.7,2.6-2.9c2-1.1,3.8-1.3,5.7-0.8c0.9,0.3,2,0.6,2.9,1.1
		c1,0.5,1.9,1,3,1.5c1,0.5,1.9,0.7,2.6,0.6c0.7-0.1,1.3-0.4,1.8-0.9c0.9-0.9,1.2-2.3,1.1-2.9c0-0.3-0.2-0.9-0.7-1.7
		c-0.4-0.8-1.2-1.7-2.2-2.4c-0.5-0.4-1-0.7-1.6-0.9c-0.6-0.2-1.3-0.4-2.1-0.4c-1.5-0.1-3.2,0.3-5.1,1.3c3.2-3,3.5-6.2,2.8-8.6
		c-0.8-2.3-2.4-3.9-2.9-4c-0.5-0.2-1.9-0.3-2.9,0.2C77.2,19,76.4,20.3,76.7,22.5z"/>
	<path class="st0" d="M57.5,12.7c0.7,0.8,1.5,1.8,2.1,2.6c0.7,0.8,1.3,1.6,1.7,2.6c0.9,1.8,1.2,3.6,0.5,5.7
		c-0.7,2.1-1.6,2.9-2.3,3.1c-0.7,0.3-1.2,0-1.2,0c0.5,1.2,0.7,2.1,0.8,3c0,0.9-0.1,1.7-0.3,2.3c-0.3,1.2-0.8,1.9-0.8,1.9
		c0,0-0.1,1.5,1.1,0.3c0,0,0.2-0.8,0.9-1.8c0.7-1,1.9-2.4,4.4-3.2c0,0-0.6-0.2-0.9-0.8c-0.3-0.7-0.3-1.8,0.7-3.8
		c1-2,2.5-3.1,4.4-3.7c1.9-0.7,4-0.7,6.3-1c2.3-0.2,3.2-1.3,3.5-2.5c0.3-1.3-0.2-2.6-0.6-3c-0.3-0.4-2.1-1.8-4.6-1.9
		c-2.4-0.2-5.3,1-7.4,4.8c0.5-2.1,0.5-4,0-5.4c-0.5-1.4-1.3-2.5-2.3-3.4c-1.9-1.5-4.1-1.9-4.6-1.8c-0.5,0.1-1.8,0.7-2.4,1.8
		C56,9.5,56,11,57.5,12.7z"/>
	<path class="st0" d="M36,14.8c1.1,0.4,2.2,0.7,3.2,1c1,0.3,2,0.8,2.8,1.3c1.7,0.9,2.9,2.4,3.5,4.6c0.5,2.2,0.2,3.3-0.3,3.8
		c-0.4,0.6-1,0.7-1,0.7c0.5,0.3,1,0.7,1.3,1c0.4,0.4,0.7,0.8,0.9,1.1c0.5,0.7,0.8,1.4,1,2c0.4,1.2,0.4,2,0.4,2c0,0,0.7,1.3,1.1-0.3
		c0,0-0.2-0.8-0.2-2c0.1-1.3,0.3-3.1,2-5.1c0,0-0.1,0-0.4,0c-0.2,0-0.5-0.1-0.8-0.2c-0.6-0.4-1.3-1.3-1.5-3.6
		c-0.2-2.2,0.4-3.9,1.7-5.5c0.6-0.8,1.4-1.4,2.2-2.1c0.8-0.7,1.7-1.4,2.6-2.1c1.8-1.4,2-2.8,1.6-4c-0.2-0.6-0.6-1.1-1-1.5
		c-0.4-0.4-0.8-0.6-1.1-0.7C53.7,5,53.1,5,52.2,5c-0.9,0.1-2,0.3-3.1,1C48,6.6,47,7.5,46.4,8.8c-0.7,1.3-1,3.1-0.9,5.2
		c-0.7-2.1-1.7-3.5-2.9-4.5c-1.2-1-2.5-1.4-3.7-1.6c-0.6-0.1-1.2-0.1-1.8-0.1c-0.5,0.1-1,0.2-1.5,0.3c-0.9,0.2-1.5,0.6-1.7,0.7
		c-0.2,0.2-0.5,0.5-0.7,1c-0.2,0.5-0.4,1.1-0.3,1.8C33,12.9,33.8,14.1,36,14.8z"/>
	<path class="st0" d="M16.3,28.3c0.7,0.2,1.6,0.2,2.7-0.1c1.1-0.3,2.2-0.6,3.2-0.9c1.1-0.2,2.1-0.4,3.1-0.5c0.5,0,1,0,1.4,0
		c0.5,0.1,0.9,0.2,1.4,0.3c0.9,0.3,1.8,0.8,2.6,1.6c1.6,1.6,1.9,2.7,1.9,3.4c0,0.3-0.1,0.6-0.3,0.8c-0.1,0.2-0.2,0.3-0.2,0.3
		c1.2,0,2.3,0.2,3.1,0.6c0.8,0.3,1.5,0.8,1.9,1.2c1,0.8,1.4,1.5,1.4,1.5s0.3,0.2,0.6,0.1c0.3,0,0.5-0.2,0.2-1c0,0-0.6-0.5-1.3-1.6
		c-0.3-0.6-0.7-1.2-0.9-2.1c-0.1-0.4-0.2-0.9-0.3-1.5c0-0.5,0-1.1,0-1.7c0,0-0.1,0.1-0.3,0.2c-0.2,0.1-0.5,0.2-0.8,0.2
		c-0.7,0-1.8-0.4-3.2-2.2c-1.4-1.7-1.8-3.6-1.6-5.5c0.1-1,0.4-1.9,0.7-3c0.2-0.5,0.3-1,0.5-1.6c0.2-0.5,0.4-1,0.6-1.6
		c0.8-2.1,0.2-3.5-0.9-4.3c-1-0.8-2.5-0.9-3-0.8c-0.5,0.1-2.5,1.3-3.7,3.4c-1.1,2.2-1.3,5.2,1.3,8.7c-3.4-2.7-6.7-2.7-8.9-1.5
		c-2.3,1-3.4,3-3.6,3.4c-0.2,0.5-0.1,1.9,0.6,2.9C15.1,27.7,15.6,28.1,16.3,28.3z"/>
	<path class="st0" d="M7.9,50.2c1.1,0.5,2.6,0.2,4.2-1.5c0.8-0.9,1.4-1.7,2.2-2.5c0.8-0.8,1.5-1.5,2.3-2.1c0.8-0.6,1.7-1,2.6-1.2
		c0.9-0.2,1.9-0.3,3,0c2.2,0.4,3.1,1.2,3.4,1.8c0.3,0.6,0.2,1.2,0.2,1.2c0.5-0.3,1-0.6,1.5-0.8c0.5-0.2,1-0.3,1.4-0.4
		c0.9-0.2,1.6-0.1,2.3-0.1c1.2,0.2,2,0.5,2,0.5c0,0,1.5-0.1,0.2-1.1c0,0-0.8-0.1-1.9-0.7C30.6,43,30,42.6,29.3,42
		c-0.3-0.3-0.7-0.7-1-1.1c-0.3-0.4-0.6-0.9-0.9-1.5c0,0-0.1,0.6-0.8,0.9c-0.6,0.4-1.7,0.6-3.8-0.1c-2.1-0.7-3.5-2-4.3-3.8
		c-0.8-1.7-1.3-3.9-1.8-6.1c-0.5-2.2-1.7-3.1-3-3.1c-1.3-0.1-2.6,0.6-2.9,1c-0.4,0.4-1.4,2.4-1.3,4.8c0.3,2.5,1.7,5.1,5.8,6.7
		c-2.2-0.2-3.9,0.1-5.3,0.8c-0.7,0.3-1.3,0.7-1.8,1.2c-0.5,0.5-0.9,1-1.2,1.5c-0.6,1.1-1,2.1-1.1,3c-0.1,0.9-0.1,1.6,0,1.8
		C6,48.6,6.7,49.7,7.9,50.2z"/>
</g>
</svg>
