<?xml version="1.0" encoding="utf-8"?>
<!-- Generator: Adobe Illustrator 23.0.6, SVG Export Plug-In . SVG Version: 6.00 Build 0)  -->
<svg version="1.1" id="Layer_1" xmlns="http://www.w3.org/2000/svg" xmlns:xlink="http://www.w3.org/1999/xlink" x="0px" y="0px"
	 viewBox="0 0 100 125" style="enable-background:new 0 0 100 125;" xml:space="preserve">
<style type="text/css">
	.st0{fill:#F910B2;}
</style>
<circle class="st0" cx="47.8" cy="45.8" r="10.6"/>
<circle class="st0" cx="63.3" cy="39.5" r="3.6"/>
<circle class="st0" cx="67.2" cy="52" r="7.5"/>
<circle class="st0" cx="74.6" cy="39.5" r="5.1"/>
<circle class="st0" cx="79.4" cy="49.6" r="3.9"/>
<circle class="st0" cx="79.1" cy="30.2" r="3"/>
<circle class="st0" cx="65.7" cy="27" r="7.8"/>
<circle class="st0" cx="54" cy="30.8" r="2.7"/>
<circle class="st0" cx="12.2" cy="29.1" r="2.7"/>
<circle class="st0" cx="89.2" cy="54.7" r="5.7"/>
<circle class="st0" cx="68.9" cy="12.1" r="5.4"/>
<circle class="st0" cx="48.7" cy="20.1" r="7.8"/>
<circle class="st0" cx="46" cy="31.4" r="2.1"/>
<circle class="st0" cx="12" cy="62.3" r="6.9"/>
<circle class="st0" cx="30.2" cy="14.8" r="5.8"/>
<circle class="st0" cx="33.4" cy="29.7" r="7.4"/>
<circle class="st0" cx="33.4" cy="41.3" r="2.3"/>
<circle class="st0" cx="22.4" cy="45.5" r="6.8"/>
<circle class="st0" cx="81.4" cy="72.9" r="8.3"/>
<circle class="st0" cx="66.7" cy="77.7" r="6"/>
<circle class="st0" cx="36" cy="69.4" r="8.4"/>
<circle class="st0" cx="46.7" cy="76.2" r="3.2"/>
<circle class="st0" cx="78.6" cy="59" r="3"/>
<circle class="st0" cx="69.6" cy="64.7" r="4.3"/>
<circle class="st0" cx="56.6" cy="57.2" r="2.2"/>
<circle class="st0" cx="51.7" cy="91.8" r="2.2"/>
<circle class="st0" cx="55.4" cy="67.8" r="6.7"/>
<circle class="st0" cx="45.3" cy="60.5" r="2.8"/>
<circle class="st0" cx="38" cy="57" r="2.4"/>
<circle class="st0" cx="32.9" cy="49.1" r="2.6"/>
<circle class="st0" cx="26.8" cy="58" r="4.5"/>
</svg>
