<?xml version="1.0" encoding="utf-8"?>
<!-- Generator: Adobe Illustrator 23.0.6, SVG Export Plug-In . SVG Version: 6.00 Build 0)  -->
<svg version="1.1" id="Layer_1" xmlns="http://www.w3.org/2000/svg" xmlns:xlink="http://www.w3.org/1999/xlink" x="0px" y="0px"
	 viewBox="0 0 100 125" style="enable-background:new 0 0 100 125;" xml:space="preserve">
<style type="text/css">
	.st0{fill:#F20303;}
</style>
<title>Ellipse</title>
<path class="st0" d="M18.2,67.6c-0.5,0-0.9,0-1.4-0.1h-0.1h-0.2c-2.6-0.4-5-1.7-6.8-3.7c-4.4-4.7-4.1-12.1,0.7-16.5
	c0.6-0.6,1.3-1.1,2.1-1.5c0.3-0.2,0.7-0.4,1.1-0.5c0.4-0.2,0.9-0.4,1.3-0.5c1.1-0.3,2.2-0.5,3.3-0.5c-0.2,0.6-0.4,1.2-0.5,1.8
	c-0.8,0-1.5,0.2-2.3,0.4c-0.4,0.1-0.7,0.2-1.1,0.4c-0.3,0.1-0.6,0.3-0.9,0.5C9,50,7.2,55.4,9.3,60c1.5,3.3,4.7,5.5,8.3,5.8
	C17.8,66.4,18,67,18.2,67.6z"/>
<path class="st0" d="M39.7,21.2c-0.4,0.2-0.8,0.4-1.2,0.5c-0.2,0.1-0.3,0.1-0.5,0.2c-0.5-0.5-1.1-1-1.8-1.4c-0.3-0.2-0.7-0.4-1-0.6
	c-0.3-0.1-0.6-0.3-0.9-0.4c-4.7-1.7-10,0.4-12.2,5c-0.5,0.9-0.8,2-0.9,3c-0.3,2.5,0.3,5,1.8,7c-0.4,0.5-0.7,1-1,1.6
	c-0.3-0.3-0.5-0.7-0.8-1l-0.1-0.1c0-0.1-0.1-0.1-0.1-0.2c-3.3-5.5-1.6-12.7,3.9-16c3-1.8,6.7-2.2,10-1c0.4,0.1,0.7,0.3,1.1,0.5
	c0.4,0.2,0.8,0.4,1.2,0.7C38.1,19.7,38.9,20.4,39.7,21.2z"/>
<path class="st0" d="M71.3,22.7c-0.6-0.3-1.1-0.6-1.7-0.9c0.1-0.7,0.1-1.5,0-2.2c-0.1-0.4-0.1-0.8-0.2-1.1c-0.1-0.3-0.2-0.7-0.3-1
	c-1.7-4.7-6.8-7.4-11.7-6.1c-1,0.3-2,0.7-2.9,1.2c-2.1,1.4-3.6,3.4-4.2,5.8c-0.6,0.1-1.3,0.1-1.9,0.2c0.1-0.4,0.2-0.8,0.3-1.2v-0.1
	c0-0.1,0-0.1,0.1-0.2c0.9-2.5,2.5-4.6,4.7-6.1c1-0.7,2.2-1.2,3.4-1.5c5.8-1.5,11.8,1.6,13.8,7.3c0.1,0.4,0.2,0.8,0.3,1.1
	c0.1,0.4,0.2,0.9,0.3,1.4C71.4,20.6,71.4,21.7,71.3,22.7z"/>
<path class="st0" d="M94.5,43.8c-0.2,0.4-0.4,0.7-0.7,1c-0.3,0.4-0.5,0.7-0.8,1.1c-0.7,0.8-1.6,1.5-2.5,2.1
	c-0.1-0.6-0.3-1.2-0.4-1.9c0.6-0.4,1.1-0.9,1.6-1.5c0.3-0.3,0.5-0.6,0.7-0.9c0.2-0.3,0.4-0.5,0.5-0.8c2.7-4.7,1-10.7-3.7-13.4
	c-2.8-1.6-6.2-1.7-9.1-0.3c-0.4-0.5-0.9-0.9-1.4-1.3c0.3-0.2,0.7-0.4,1-0.5l0.1,0l0.2-0.1c2.5-1,5.2-1.1,7.7-0.3
	c1.2,0.4,2.3,0.9,3.3,1.6C96,32.1,97.4,38.6,94.5,43.8z"/>
<path class="st0" d="M89.3,79.3c-0.4,0.1-0.8,0.1-1.2,0.2c-0.5,0-0.9,0-1.4,0c-1.1,0-2.2-0.2-3.2-0.6c0.4-0.5,0.8-1,1.1-1.5
	c0.7,0.2,1.5,0.3,2.2,0.3c0.4,0,0.8,0,1.2,0c0.3,0,0.7-0.1,1-0.1c5-0.9,8.4-5.4,8-10.5c-0.1-1-0.3-2-0.8-3c-1-2.3-2.8-4.1-5-5.1
	c0-0.6,0.1-1.3,0.1-1.9c0.3,0.1,0.7,0.3,1.1,0.5l0.1,0l0.2,0.1c2.3,1.3,4.1,3.3,5.2,5.7c2.5,5.9-0.2,12.7-6.1,15.3
	C91,78.9,90.2,79.2,89.3,79.3L89.3,79.3z"/>
<path class="st0" d="M67.2,26.7c-4.2-1.9-8.8-2.9-13.4-2.9c-1,0-2,0-3,0.1c-0.1-0.2-0.1-0.3-0.2-0.5c-0.3-1.3-0.4-2.6-0.2-3.9
	c0-0.2,0.1-0.5,0.2-0.7c0.6-2.3,2-4.3,4-5.6c0.8-0.5,1.8-0.9,2.7-1.2c0.8-0.2,1.6-0.3,2.4-0.3c3.9,0,7.4,2.4,8.7,6.1
	c0.1,0.3,0.2,0.6,0.3,0.9c0.1,0.4,0.2,0.7,0.2,1.1c0.1,0.7,0.1,1.4,0,2.1c0,0.3,0,0.5-0.1,0.8C68.7,24.1,68.1,25.5,67.2,26.7z"/>
<path class="st0" d="M84.9,47.4c-1-3.8-2.7-7.3-5.1-10.5c-1-1.4-2.1-2.7-3.3-3.9c0.1-0.1,0.2-0.3,0.3-0.4c0.8-1.1,1.7-2,2.9-2.7
	c0.2-0.1,0.5-0.3,0.7-0.4c1.3-0.6,2.6-0.9,4-0.9c5.2,0,9.3,4.2,9.3,9.3c0,1.6-0.4,3.2-1.2,4.6c-0.1,0.3-0.3,0.5-0.5,0.8
	c-0.2,0.3-0.4,0.6-0.7,0.9c-0.5,0.5-1,1-1.6,1.4c-0.2,0.2-0.4,0.3-0.7,0.4C87.8,46.9,86.3,47.3,84.9,47.4z"/>
<path class="st0" d="M27.4,37.5c-0.2-0.1-0.4-0.2-0.5-0.2c-1.2-0.6-2.2-1.4-3.1-2.4c-0.2-0.2-0.3-0.4-0.4-0.6
	c-1.4-1.9-2-4.3-1.7-6.7c0.1-1,0.4-1.9,0.8-2.9c1.5-3.2,4.8-5.3,8.4-5.3c1.1,0,2.2,0.2,3.2,0.6c0.3,0.1,0.6,0.2,0.9,0.4
	c0.3,0.1,0.6,0.3,1,0.5c0.6,0.4,1.2,0.8,1.7,1.4c0.2,0.2,0.3,0.3,0.5,0.5c1,1.2,1.7,2.5,2,4c-0.8,0.4-1.6,0.8-2.3,1.2
	C33.6,30.4,30.1,33.7,27.4,37.5z"/>
<path class="st0" d="M18.3,65.3h-0.6c-2.4-0.1-4.7-1.2-6.3-3c-0.7-0.7-1.2-1.6-1.6-2.5c-2-4.4-0.3-9.5,3.8-11.9
	c0.3-0.2,0.6-0.3,0.9-0.4c0.3-0.2,0.7-0.3,1-0.4c0.7-0.2,1.4-0.4,2.2-0.4c0.2,0,0.5,0,0.7,0c1.5,0,3,0.4,4.4,1.1
	c-1.4,5.4-1.4,11.1,0.1,16.4c-0.2,0.1-0.4,0.2-0.6,0.3C20.9,65.1,19.6,65.4,18.3,65.3z"/>
<path class="st0" d="M90.8,56.3c-0.3-0.1-0.7-0.2-1.1-0.3c-0.8-0.2-1.7-0.3-2.6-0.3c-0.3,0-0.7,0-1,0H86c0-1.9-0.2-3.8-0.5-5.6
	c1.6-0.2,3.2-0.6,4.6-1.4C90.6,51.2,90.9,53.8,90.8,56.3z"/>
<path class="st0" d="M86.8,77.2c-0.7,0-1.4-0.1-2.1-0.3L84,76.7c-1.4-0.5-2.7-1.4-3.7-2.5c1.2-1.8,2.3-3.7,3.1-5.8
	c1.3-3.1,2.1-6.4,2.4-9.8c0.2,0,0.4-0.1,0.5-0.1c0.2,0,0.5,0,0.7,0c1.1,0,2.1,0.2,3.1,0.5c0.2,0.1,0.5,0.2,0.7,0.3
	c4.7,2.1,6.8,7.6,4.7,12.3c-1.3,2.8-3.8,4.8-6.8,5.3c-0.3,0.1-0.6,0.1-0.9,0.1h-0.8L86.8,77.2z"/>
<path class="st0" d="M74.4,31.2c-1.1-0.9-2.2-1.7-3.4-2.4c-0.5-0.3-0.9-0.5-1.3-0.8c0.9-1.3,1.6-2.9,1.9-4.5
	c0.6,0.3,1.2,0.7,1.9,1.1c1.5,0.9,3,2,4.3,3.2c-0.4,0.2-0.7,0.5-1,0.7c-0.9,0.7-1.8,1.6-2.5,2.6L74.4,31.2z"/>
<path class="st0" d="M42.6,25.8c-0.4-1.6-1.1-3.1-2.2-4.3c0.7-0.3,1.5-0.5,2.3-0.8c1.6-0.5,3.3-0.9,5-1.2c-0.1,0.4-0.1,0.8-0.1,1.1
	c-0.1,1.2,0.1,2.4,0.4,3.5c0,0.1,0,0.1,0,0.2c-1.3,0.3-2.6,0.6-3.9,1C43.6,25.4,43.1,25.6,42.6,25.8z"/>
<path class="st0" d="M23.5,45c-1.5-0.7-3.1-1.1-4.7-1.2c0.8-2.4,1.9-4.6,3.2-6.8c0.3,0.3,0.5,0.5,0.7,0.8c0.9,0.8,1.9,1.5,3,2
	l0.2,0.1C25,41.5,24.2,43.2,23.5,45z"/>
<path class="st0" d="M85.5,56.3c0-2.2-0.2-4.4-0.6-6.6c-0.3,0-0.6,0-0.9,0c-1.5-0.1-2.9-0.4-4.3-1c-0.7-0.3-1.4-0.7-2.1-1.2
	c-5-3.6-6.4-10.4-3.1-15.7c-1.2-1-2.4-1.9-3.7-2.8c-0.6-0.4-1.1-0.7-1.7-1c-0.2,0.2-0.4,0.5-0.6,0.7c-1,1.1-2.2,2-3.5,2.6
	c-3.7,1.8-8,1.6-11.5-0.6c-2.3-1.4-3.9-3.6-4.8-6.1c-1.5,0.2-3,0.6-4.4,1.1c-0.7,0.2-1.3,0.4-2,0.7c0,0.3,0.1,0.5,0.1,0.8
	c0.2,1.5,0.1,2.9-0.2,4.4c-0.2,0.8-0.5,1.5-0.8,2.3c-2.6,5.5-9.1,8.1-14.8,5.8c-1.1,1.9-2.1,3.9-2.8,6c0.2,0.1,0.5,0.3,0.7,0.4
	c1.9,1.2,3.4,3,4.4,5.1c1.3,3,1.4,6.4,0.1,9.4c-1,2.4-2.8,4.4-5.1,5.7c0.3,0.9,0.7,1.8,1.1,2.7c5.1,11.4,16.5,18.7,28.9,18.7
	c9.6,0,18.7-4.4,24.7-11.9c-0.2-0.2-0.4-0.4-0.6-0.7c-0.9-1.1-1.6-2.5-2-3.9c-0.2-0.8-0.4-1.6-0.4-2.4
	C75.1,62.7,79.4,57.2,85.5,56.3z M77.8,59.3c-2.4,2.6-3.6,6.1-3.3,9.6c0.2,2.5,1.1,4.8,2.7,6.8v0.1c-3,3.5-6.7,6.3-10.8,8.2
	C51,90.8,32.8,84,25.9,68.6c-0.3-0.6-0.5-1.2-0.8-1.9c5.3-3.4,7.3-10.1,4.7-15.9c-0.4-0.8-0.8-1.6-1.3-2.3c-0.9-1.3-2.1-2.4-3.5-3.2
	l0,0c0.5-1.5,1.2-3,2-4.4c2.5,0.8,5.1,0.8,7.6,0c3.4-1,6.1-3.4,7.7-6.6c0.4-0.8,0.7-1.6,0.9-2.5c0.4-1.5,0.5-3.2,0.2-4.7
	c0,0,0,0,0,0c0.4-0.1,0.8-0.2,1.2-0.4c1.1-0.4,2.3-0.7,3.5-0.9c1.9,4.8,6.6,7.9,11.7,7.9c1.1,0,2.1-0.1,3.2-0.4
	c0.8-0.2,1.7-0.5,2.4-0.9c1.4-0.7,2.7-1.7,3.8-2.9l0.1-0.1c0.3,0.2,0.6,0.4,1,0.6c1,0.7,2,1.4,3,2.2c-3,5.6-1.4,12.6,3.8,16.3
	c0.7,0.5,1.5,0.9,2.3,1.3c1.5,0.7,3,1,4.6,1.1H84c0.3,1.6,0.4,3.2,0.4,4.8C81.9,56.1,79.6,57.4,77.8,59.3L77.8,59.3z"/>
<path class="st0" d="M53.9,92.9c-1.6,0-3.2-0.1-4.7-0.2l-0.6-0.1l-0.4-0.1c-8.3-1.3-15.9-5.4-21.6-11.5c-2.7-2.9-4.9-6.2-6.5-9.8
	c-0.5-1-0.9-2-1.2-3c0.3,0,0.6,0,1-0.1c1.2-0.2,2.3-0.5,3.4-1l0.3-0.2c0.3,0.7,0.6,1.5,0.9,2.2c1.4,3.1,3.3,6,5.6,8.5
	c12,13.1,32.4,13.9,45.5,1.9c1.1-1,2.1-2.1,3-3.2c1.1,1.1,2.5,2,4,2.7c-3.6,4.5-8.3,8.1-13.6,10.5c-3.3,1.5-6.8,2.5-10.4,3
	C57.1,92.8,55.5,92.9,53.9,92.9z"/>
</svg>
