<?xml version="1.0" encoding="utf-8"?>
<!-- Generator: Adobe Illustrator 23.0.6, SVG Export Plug-In . SVG Version: 6.00 Build 0)  -->
<svg version="1.1" id="Layer_1" xmlns="http://www.w3.org/2000/svg" xmlns:xlink="http://www.w3.org/1999/xlink" x="0px" y="0px"
	 viewBox="0 0 100 125" style="enable-background:new 0 0 100 125;" xml:space="preserve">
<style type="text/css">
	.st0{fill:#47B649;}
</style>
<title></title>
<path class="st0" d="M83.8,56.1l-4.8-2.4c-3.2-1.6-6.5-3.1-9.7-4.6l-6.4-2.9c1.2-0.3,2.4-0.6,3.6-1.1c3.4-1.2,6.6-3.1,9.5-5.4
	c1.5-1.3,2.9-2.7,4.2-4.2c0.7-0.8,1.3-1.7,1.9-2.6c0.7-1,1.2-2.1,1.7-3.1l-0.3-0.9l-5.1,1.6l-5.1,1.7c-3.4,1.2-6.8,2.4-10.1,3.6
	l-6.6,2.5c0.7-1.1,1.2-2.1,1.8-3.3c1.5-3.3,2.5-6.9,2.8-10.6c0.2-2,0.2-4,0-5.9c-0.1-1.1-0.3-2.1-0.5-3.2c-0.2-1.2-0.6-2.3-1-3.4
	l-0.9-0.4l-2.5,4.8l-2.4,4.8c-1.6,3.2-3.1,6.5-4.6,9.7c-1,2.1-1.9,4.2-2.9,6.4c-0.3-1.2-0.6-2.4-1.1-3.6c-1.2-3.4-3.1-6.6-5.4-9.5
	c-1.3-1.5-2.7-2.9-4.2-4.1c-0.8-0.7-1.7-1.3-2.6-1.9c-1-0.7-2.1-1.2-3.1-1.7l-0.9,0.3l1.6,5.1l1.7,5.1c1.2,3.4,2.4,6.8,3.6,10.1
	c0.8,2.2,1.7,4.4,2.5,6.6c-1.1-0.7-2.1-1.3-3.3-1.8c-3.3-1.5-6.9-2.5-10.6-2.8c-2-0.2-4-0.2-5.9,0c-1.1,0.1-2.1,0.3-3.2,0.5
	c-1.2,0.2-2.3,0.6-3.4,1l-0.4,0.9l4.8,2.5l4.8,2.4c3.2,1.6,6.5,3.1,9.7,4.6l6.4,2.9c-1.2,0.3-2.4,0.6-3.6,1.1
	c-5.3,1.9-10,5.3-13.6,9.7c-0.7,0.8-1.3,1.7-1.9,2.6c-0.7,1-1.2,2.1-1.7,3.2l0.3,0.9l5.1-1.6l5.1-1.7c3.4-1.2,6.8-2.4,10.1-3.6
	l6.6-2.5c-0.7,1.1-1.3,2.1-1.8,3.3c-1.5,3.3-2.5,6.9-2.8,10.6c-0.2,2-0.2,4,0,5.9c0.1,1.1,0.3,2.1,0.5,3.2c0.2,1.2,0.6,2.3,1,3.4
	l0.9,0.4l2.5-4.8l2.4-4.8c1.6-3.2,3.1-6.5,4.6-9.7c1-2.1,1.9-4.2,2.9-6.4c0.3,1.2,0.6,2.4,1.1,3.6c1.9,5.3,5.3,10,9.6,13.6
	c0.8,0.7,1.7,1.3,2.6,1.9c1,0.7,2.1,1.2,3.2,1.7l0.9-0.3l-1.6-5.1l-1.7-5.1c-1.2-3.4-2.4-6.8-3.6-10.1c-0.8-2.2-1.7-4.4-2.5-6.6
	c1.1,0.7,2.2,1.2,3.3,1.8c3.3,1.5,6.9,2.5,10.6,2.8c2,0.2,4,0.2,5.9,0c1.1-0.1,2.1-0.3,3.2-0.5c1.2-0.2,2.3-0.6,3.4-1l0.4-0.9
	L83.8,56.1z M50.2,53.3c-0.7-0.1-1.4-0.2-2.1-0.3c-0.1-0.2-0.2-0.3-0.3-0.5c-0.4-0.6-0.8-1.1-1.3-1.7c0-0.2,0.1-0.4,0.1-0.6
	c0.1-0.7,0.2-1.4,0.3-2.1l0.5-0.3c0.6-0.4,1.1-0.8,1.7-1.3l0.6,0.1c0.7,0.1,1.4,0.2,2.1,0.3c0.1,0.2,0.2,0.3,0.3,0.5
	c0.4,0.6,0.8,1.1,1.3,1.7c0,0.2-0.1,0.4-0.1,0.6c-0.1,0.7-0.2,1.4-0.3,2.1l-0.5,0.3c-0.6,0.4-1.1,0.8-1.7,1.3L50.2,53.3z"/>
</svg>
