<?xml version="1.0" encoding="utf-8"?>
<!-- Generator: Adobe Illustrator 23.0.6, SVG Export Plug-In . SVG Version: 6.00 Build 0)  -->
<svg version="1.1" id="Layer_1" xmlns="http://www.w3.org/2000/svg" xmlns:xlink="http://www.w3.org/1999/xlink" x="0px" y="0px"
	 viewBox="0 0 32 40" style="enable-background:new 0 0 32 40;" xml:space="preserve">
<style type="text/css">
	.st0{fill:#FFFFFF;}
</style>
<g>
	<path class="st0" d="M22,26c-5.5,0-10-4.5-10-10S16.5,6,22,6s10,4.5,10,10S27.5,26,22,26z M22,8c-4.4,0-8,3.6-8,8s3.6,8,8,8
		s8-3.6,8-8S26.4,8,22,8z M10,26C4.5,26,0,21.5,0,16S4.5,6,10,6c1.3,0,2.6,0.2,3.8,0.7c0.5,0.2,0.8,0.8,0.6,1.3
		c-0.2,0.5-0.8,0.8-1.3,0.6C12,8.2,11,8,10,8c-4.4,0-8,3.6-8,8s3.6,8,8,8c1,0,2-0.2,3-0.6c0.5-0.2,1.1,0,1.3,0.6s0,1.1-0.6,1.3
		C12.6,25.8,11.3,26,10,26z M17.9,21.4c-0.2,0-0.3,0-0.5-0.1c-0.5-0.3-0.7-0.9-0.4-1.4c0.7-1.2,1-2.5,1-3.9s-0.3-2.7-1-3.9
		c-0.3-0.5-0.1-1.1,0.4-1.4c0.5-0.3,1.1-0.1,1.4,0.4c0.8,1.5,1.2,3.1,1.2,4.8s-0.4,3.4-1.2,4.8C18.6,21.2,18.2,21.4,17.9,21.4z"/>
</g>
<text transform="matrix(1 0 0 1 0 47)" style="enable-background:new    ;"><tspan x="0" y="0" style="font-family:'HelveticaNeue-Bold'; font-size:5px;">Created by </tspan><tspan x="27.5" y="0" style="font-family:'MyriadPro-Regular'; font-size:5px;">✦</tspan><tspan x="30" y="0" style="font-family:'HelveticaNeue-Bold'; font-size:5px;"> Shmidt Sergey </tspan><tspan x="67.6" y="0" style="font-family:'MyriadPro-Regular'; font-size:5px;">✦</tspan></text>
<text transform="matrix(1 0 0 1 0 52)" style="font-family:'HelveticaNeue-Bold'; font-size:5px;">from the Noun Project</text>
</svg>
