<?xml version="1.0" encoding="utf-8"?>
<!-- Generator: Adobe Illustrator 23.0.6, SVG Export Plug-In . SVG Version: 6.00 Build 0)  -->
<svg version="1.1" xmlns="http://www.w3.org/2000/svg" xmlns:xlink="http://www.w3.org/1999/xlink" x="0px" y="0px"
	 viewBox="0 0 128 160" style="enable-background:new 0 0 128 160;" xml:space="preserve">
<style type="text/css">
	.st0{fill:#AB519F;}
</style>
<g id="Layer_2">
</g>
<g id="XMLID_1_">
	<g>
		<path class="st0" d="M52.5,64.2l-3.8,1.9c0.7,0.6,1.4,1.3,2.1,2C51.3,66.8,51.9,65.5,52.5,64.2z"/>
		<path class="st0" d="M75.5,64.2c0.6,1.2,1.1,2.6,1.7,3.9c0.7-0.7,1.4-1.4,2.1-2L75.5,64.2z"/>
		<path class="st0" d="M104.1,73.5l-2.1-1.2c0,0.3,0,0.6,0,1c0,0.3,0,0.7,0,1.1C102.7,74,103.4,73.8,104.1,73.5z"/>
		<path class="st0" d="M23.9,73.5c0.7,0.2,1.4,0.5,2,0.8c0-0.7,0-1.3,0-2L23.9,73.5z"/>
		<path class="st0" d="M110.2,71.6l-8.5-5.8c0.1,1.3,0.3,2.8,0.3,4.3l4.3,2.7C107.6,72.3,108.9,71.9,110.2,71.6z"/>
		<path class="st0" d="M26.4,65.8l-8.5,5.8c1.2,0.3,2.5,0.7,3.9,1.2l4.3-2.7C26.1,68.5,26.2,67.1,26.4,65.8z"/>
		<path class="st0" d="M118.7,71c-3.3,0.5-9.6,1.9-16.6,4.8c-0.1,1.8-0.2,3.7-0.5,5.6c6.4-2.9,12.5-4.4,16.2-5.2
			c-4.5,19.7-19.6,35.5-38.9,40.9c5.9-4.7,12.7-11.5,17-20.5c8.6-18.2,3.3-37.7,3.1-38.5l-0.8-2.8l-2.6,1.3
			c-0.5,0.3-9.5,4.7-17.8,13.2c0.6,1.7,1.2,3.5,1.7,5.4c5.6-6.2,12-10.5,15.5-12.6c0.4,2.5,1,6.3,1,10.9c0,6.3-1,13.9-4.4,21.1
			c-4.7,9.8-12.9,17-18.9,21.2c0.5-1.7,1.1-3.6,1.9-5.6c0.5-1.1,1-2.2,1.4-3.3c2.5-5.3,6.1-11.1,11.3-16c1.8-1.7,3.8-3.2,5.8-4.6
			c0.5-2.1,0.9-4.3,1.2-6.5c-3.5,2-7.1,4.5-10.3,7.5c-1.6,1.4-3,3-4.3,4.5c0.1-1.4,0.2-2.8,0.2-4.2c0-19.9-13.3-35.7-13.9-36.4
			L64,49l-1.9,2.2c-0.4,0.4-6.4,7.6-10.4,18.2c1.3,1.3,2.5,2.7,3.7,4.2C57.9,66,61.7,60,64,56.8c3.5,5,10.8,17,10.8,30.7
			c0,6.3-1.5,12.1-3.5,17.2c-0.6,1.2-1.1,2.4-1.5,3.5c-0.8,1.7-1.7,3.4-2.5,4.8c-0.1-1.6-0.2-3.4-0.2-5.3c0-6.3,1-13.9,4.4-21.1
			c0.6-1.2,1.2-2.3,1.8-3.4c-0.3-2.4-0.7-4.7-1.3-6.9c-1.8,2.5-3.5,5.2-4.9,8.2c-1.3,2.8-2.4,5.7-3.1,8.6c-0.7-2.8-1.7-5.7-3.1-8.6
			c-8.6-18.1-27.6-27.6-28.4-28l-2.6-1.3L29.1,58c-0.1,0.5-2.1,7.6-1.8,17c1.7,0.7,3.4,1.5,5.1,2.4c-0.1-1.4-0.1-2.8-0.1-4.1
			c0-4.5,0.5-8.4,0.9-10.9c5.4,3.2,17.3,11.5,23.3,24.1c3.4,7.2,4.4,14.9,4.4,21.1c0,1.9-0.1,3.7-0.2,5.3c-0.8-1.4-1.7-3-2.5-4.8
			c-0.4-1.1-0.9-2.3-1.5-3.5c-2-5-3.5-10.9-3.5-17.2c0-1.4,0.1-2.8,0.2-4.1c-1.2-2-2.6-3.9-4.1-5.7c-0.7,3.1-1,6.4-1,9.8
			c0,1.4,0.1,2.8,0.2,4.2c-1.3-1.5-2.7-3.1-4.3-4.5C31.9,75.7,15.4,72,9.3,71C8,70.8,7.2,70.7,7,70.7l-2.7-0.3
			c1.4,13.6,7.4,26.2,17.2,36c10.9,10.9,25.3,17.1,40.6,17.5c0.6,0,1.2,0,1.8,0c0.6,0,1.2,0,1.8,0c15.4-0.4,29.7-6.6,40.6-17.5
			c9.8-9.8,15.8-22.4,17.2-36l-2.7,0.3C120.8,70.7,120,70.8,118.7,71z M32.2,96.5c4.3,9,11.1,15.9,17,20.5
			c-19.4-5.4-34.5-21.2-38.9-40.9c6.6,1.3,20.4,5.1,30.6,14.6c5.3,4.9,8.9,10.7,11.3,16c0.5,1.2,0.9,2.3,1.4,3.3
			c0.8,2,1.4,3.9,1.9,5.6c-6-4.2-14.2-11.4-18.9-21.2c-1.2-2.5-2.1-5.1-2.7-7.6c-1.9-1.2-3.8-2.3-5.7-3.3
			C28.9,87.8,30.1,92.2,32.2,96.5z"/>
		<path class="st0" d="M64,88.5c0.6-1.6,1.2-3.2,1.9-4.7c1.4-2.9,3.1-5.7,5-8.4c0,0,0.3-0.4,0.5-0.7c-2.1-6.7-5.3-12.3-7.5-15.6
			c-2.1,3.2-5.2,8.5-7.3,14.9c0,0-0.1,0.4-0.2,0.8c2.1,2.8,4,5.8,5.6,9.1C62.8,85.4,63.4,86.9,64,88.5z"/>
		<path class="st0" d="M59.2,107.2c0.1,0.3,0.2,0.5,0.4,0.8c0-0.1,0-0.2,0-0.3c0-7.7-1.4-14.6-4.3-20.6c-0.2-0.5-0.5-1-0.7-1.4
			c0,0.6,0,1.3,0,1.9c0,6.2,1.6,12.1,3.5,17C58.4,105.4,58.8,106.3,59.2,107.2z"/>
		<path class="st0" d="M68.5,108c0.1-0.3,0.2-0.5,0.4-0.8c0.4-0.9,0.7-1.8,1.2-2.7c2-4.9,3.5-10.8,3.5-17c0-0.6,0-1.2-0.1-1.8
			c-0.2,0.5-0.5,0.9-0.7,1.4c-2.8,6-4.3,12.9-4.3,20.6C68.4,107.8,68.5,107.9,68.5,108z"/>
		<path class="st0" d="M48.2,76.5c-4.9-5.6-10.5-9.6-14.1-11.9c-0.3,2.3-0.6,5.3-0.6,8.7c0,1.3,0,2.7,0.1,4V78
			c3.9,2.2,7.8,4.8,11.4,8.2c0.6,0.6,1.3,1.2,1.9,1.8c0-0.2,0-0.4,0-0.5c0-3.3,0.4-6.7,1.1-10.1C48,77.4,48.1,76.9,48.2,76.5z"/>
		<path class="st0" d="M82.9,86.2c3.1-2.8,6.6-5.4,10.5-7.7l0.8-0.5c0.1-1.5,0.2-3.1,0.2-4.7c0-3.4-0.3-6.4-0.6-8.7
			C90.3,66.8,85,70.7,80.3,76c0,0-0.3,0.3-0.5,0.6c0.8,3.5,1.3,7.1,1.3,11c0,0.2,0,0.4,0,0.5C81.6,87.4,82.3,86.8,82.9,86.2z"/>
		<path class="st0" d="M77,107.2c-0.4,1.1-0.9,2.2-1.4,3.2c-0.2,0.5-0.4,1.1-0.6,1.6c5.2-4.1,11.4-10.3,15.2-18.2
			c0.9-1.8,1.6-3.7,2.2-5.7c-1.6,1.1-3,2.3-4.3,3.5C83,96.4,79.4,102.1,77,107.2z"/>
		<path class="st0" d="M53,112.1c-0.2-0.6-0.4-1.1-0.7-1.7c-0.4-1-0.9-2-1.3-3c-2.4-5.2-5.9-10.9-11.1-15.6
			c-1.4-1.3-2.8-2.5-4.3-3.5c0.6,2,1.3,3.9,2.2,5.7C41.6,101.8,47.8,107.9,53,112.1z"/>
		<path class="st0" d="M84.9,113.5c15-6.4,26.7-19.5,31-35.6c-3.7,0.9-8.6,2.3-13.8,4.6l-0.8,0.4c-0.7,4.6-2,9.4-4.3,14.1
			C93.9,103.7,89.4,109.2,84.9,113.5z"/>
		<path class="st0" d="M26.7,82.9c-5.4-2.5-10.6-4.1-14.6-5c4.3,16.1,16,29.2,31,35.5C38.6,109,34.2,103.6,31,97
			c-1.9-4.1-3.3-8.6-4.2-13.3L26.7,82.9z"/>
		<path class="st0" d="M106.4,21.6C95.1,10.2,80,4,64,4s-31.1,6.2-42.4,17.6C10.2,32.9,4,48,4,64c0,1.7,0.1,3.4,0.2,5l2.9,0.3
			c0.1,0,0.8,0.1,2,0.3l0,0h0.1c0.1,0,0.2,0,0.4,0.1l0,0l6.8-5.7l-7.1-5.9c0.1-0.6,0.1-1.3,0.2-1.9l10,7.9l-7.7,6.1
			c1.1,0.2,2.4,0.5,3.9,0.9l9.7-7L10.1,53c0.1-0.6,0.2-1.1,0.4-1.7l16.4,11.2c0.3-1.6,0.5-2.8,0.7-3.7L11.1,48.7
			c0.1-0.5,0.3-1,0.5-1.5L28,56.9l0.9-3.2l-16.5-8.9c0.2-0.5,0.3-0.9,0.5-1.4l39.7,20.5c3.8-8.1,8.2-13.3,8.5-13.6l0.9-1.1L43.4,13
			c0.5-0.2,0.9-0.4,1.4-0.5L64,46.9l19.3-34.4c0.5,0.2,0.9,0.4,1.4,0.5L65.9,49.2l0.9,1.1c0.3,0.4,4.7,5.6,8.5,13.6L115,43.4
			c0.2,0.4,0.4,0.9,0.5,1.4L99,53.7c0.2,0.7,0.6,2.3,0.9,3.3l16.4-9.7c0.2,0.5,0.3,1,0.5,1.5L100.4,59c0.2,0.8,0.5,2.1,0.7,3.7
			l16.4-11.2c0.1,0.5,0.2,1.1,0.4,1.6l-15.3,11l9.7,7c1.4-0.4,2.7-0.7,3.9-0.9l-7.7-6.1l10-7.9c0.1,0.6,0.2,1.3,0.2,1.9l-7.1,5.9
			l6.8,5.7l0,0c0.1,0,0.3,0,0.4-0.1h0.1l0,0l0,0l0,0l0,0c1.1-0.2,1.8-0.3,2-0.3l2.7-0.3h0.3c0.1-1.7,0.2-3.3,0.2-5
			C124,48,117.8,32.9,106.4,21.6z M35,17.2l4.2,22l-22-4.2c0.3-0.5,0.6-1,0.9-1.4l18.5,3l-3-18.5C34.1,17.8,34.6,17.5,35,17.2z
			 M31.1,19.9l1.5,12.6L20,31c0.4-0.5,0.8-1,1.2-1.5l9.2,0.8l-0.8-9.2C30,20.7,30.5,20.3,31.1,19.9z M26.7,23.6l0.1,3.3l-3.3-0.1
			C24.6,25.6,25.6,24.6,26.7,23.6z M15.8,37.5L44,44l-6.6-28.2c0.4-0.2,0.9-0.5,1.4-0.7L47,47l-32-8.2
			C15.3,38.4,15.5,37.9,15.8,37.5z M58.1,9.3l5.9,7.1l6-7.1c0.6,0.1,1.3,0.1,1.9,0.2l-7.9,10l-7.9-10C56.8,9.4,57.4,9.4,58.1,9.3z
			 M64,11.4L61.8,9c0.7,0,1.5,0,2.2,0c0.8,0,1.5,0,2.2,0L64,11.4z M53,10.1l11,15.3l11-15.3c0.6,0.1,1.1,0.2,1.6,0.4L64,28.9
			L51.4,10.4C51.9,10.3,52.5,10.2,53,10.1z M94.4,18.1l-3,18.5l18.5-3c0.3,0.5,0.6,0.9,0.9,1.4l-22,4.2l4.2-22
			C93.4,17.5,93.9,17.8,94.4,18.1z M95.5,32.5L97,19.9c0.5,0.4,1,0.8,1.5,1.2l-0.8,9.2l9.2-0.8c0.4,0.5,0.8,1,1.2,1.5L95.5,32.5z
			 M101.2,26.8l0.1-3.3c1.1,1,2.1,2,3.1,3.1L101.2,26.8z M90.5,15.8L84,44l28.3-6.6c0.2,0.4,0.5,0.9,0.7,1.4L81,47l8.2-32
			C89.6,15.3,90.1,15.5,90.5,15.8z M9.2,69.6L9.2,69.6L9.2,69.6L9.2,69.6L9.2,69.6L9.2,69.6L9.2,69.6z M11.4,64L9,66.2
			c0-0.7,0-1.5,0-2.2c0-0.8,0-1.5,0-2.2L11.4,64z M56.2,56.2L56.2,56.2L13.3,42.5c0.2-0.4,0.4-0.9,0.6-1.3l38.8,11.5L41.2,13.9
			c0.4-0.2,0.9-0.4,1.3-0.6L56.2,56.2z M64,40L47.2,11.6c0.5-0.2,1-0.3,1.5-0.5L64,35.8l15.3-24.6c0.5,0.1,1,0.3,1.5,0.5L64,40z
			 M71.8,56.2L71.8,56.2l13.7-42.8c0.4,0.2,0.9,0.4,1.3,0.6L75.3,52.7l38.8-11.5c0.2,0.4,0.4,0.9,0.6,1.3L71.8,56.2z M116.6,64
			l2.4-2.2c0,0.7,0,1.5,0,2.2c0,0.7,0,1.5,0,2.2L116.6,64z M118.8,69.6L118.8,69.6L118.8,69.6L118.8,69.6L118.8,69.6L118.8,69.6
			L118.8,69.6z"/>
	</g>
</g>
</svg>
