<?xml version="1.0" encoding="utf-8"?>
<!-- Generator: Adobe Illustrator 23.0.6, SVG Export Plug-In . SVG Version: 6.00 Build 0)  -->
<svg version="1.1" id="Layer_1" xmlns="http://www.w3.org/2000/svg" xmlns:xlink="http://www.w3.org/1999/xlink" x="0px" y="0px"
	 viewBox="0 0 100 125" style="enable-background:new 0 0 100 125;" xml:space="preserve">
<style type="text/css">
	.st0{fill:#00E1FF;}
</style>
<title>МАНДАЛЫ 02 - 75 штук - на артбордах иконки</title>
<path class="st0" d="M90.2,25.7c-3.3-0.5-6.6,0-9.6,1.4c-3.8-1.4-7.6-2-11.3-0.5c-4.7,1.9-7.8,6.3-9.3,11c-1-0.2-2.1-0.3-3.1-0.3
	c-0.6-0.9-1.2-1.7-1.9-2.4c3.2-3.8,5.3-8.8,4.3-13.8c-0.7-3.9-3.2-6.8-6.4-9.3c-0.4-3.3-1.8-6.3-3.9-8.8c-2.1,2.6-3.3,5.7-3.6,9
	c-3.1,2.6-5.5,5.6-6,9.5c-0.7,5.1,1.5,9.9,4.9,13.6c-0.7,0.8-1.3,1.6-1.8,2.5c-1,0.1-2.1,0.2-3.1,0.5c-1.7-4.7-4.9-8.9-9.8-10.7
	c-3.7-1.3-7.5-0.6-11.2,0.9c-3-1.3-6.4-1.6-9.6-1c1.2,3.1,3.3,5.7,6,7.6c0.7,3.9,2.1,7.5,5.2,10c4,3.1,9.4,3.6,14.2,2.6
	c0.4,1,0.8,1.9,1.3,2.8c-0.4,0.9-0.8,1.9-1.1,2.9c-4.9-0.9-10.2-0.2-14.1,3.1c-3,2.6-4.3,6.2-4.8,10.2c-2.6,2-4.6,4.7-5.7,7.8
	c3.3,0.5,6.6,0,9.6-1.4c3.8,1.4,7.6,2,11.3,0.5c4.7-1.9,7.8-6.3,9.3-11c1,0.2,2.1,0.3,3.1,0.3c0.6,0.9,1.2,1.7,1.9,2.4
	c-3.2,3.8-5.3,8.8-4.3,13.8c0.7,3.9,3.2,6.8,6.4,9.3c0.4,3.3,1.8,6.3,3.9,8.8c2.1-2.6,3.3-5.7,3.6-9c3.1-2.6,5.5-5.6,6-9.5
	c0.7-5.1-1.5-9.9-4.9-13.6c0.7-0.8,1.3-1.6,1.8-2.5c1-0.1,2.1-0.2,3.1-0.5c1.7,4.7,4.9,8.9,9.8,10.7c3.7,1.3,7.5,0.6,11.2-0.9
	c3,1.3,6.4,1.6,9.6,1c-1.2-3.1-3.3-5.7-6-7.6c-0.7-3.9-2.1-7.5-5.2-10c-4-3.1-9.4-3.6-14.2-2.6c-0.4-1-0.8-1.9-1.3-2.8
	c0.4-0.9,0.8-1.9,1.1-2.9c4.9,0.9,10.2,0.2,14.1-3.1c3-2.6,4.3-6.2,4.8-10.2C87.2,31.5,89.2,28.8,90.2,25.7z M62.5,41.6
	c0.1,0.1,0.1,0.1,0.1,0.2C62.5,41.7,62.5,41.7,62.5,41.6L62.5,41.6z M48.9,35c0.2-0.1,0.1-0.1,0.2,0C49.1,35,49.1,35,48.9,35z
	 M36.5,43.4c0-0.2,0-0.1,0.1-0.2C36.6,43.3,36.6,43.3,36.5,43.4z M37.5,58.4c-0.1-0.1-0.1-0.1-0.1-0.2
	C37.5,58.3,37.5,58.3,37.5,58.4z M51.1,65c-0.2,0.1-0.1,0.1-0.2,0C50.9,65,50.9,65,51.1,65z M63.5,56.6c0,0.2,0,0.1-0.1,0.2
	C63.4,56.7,63.4,56.7,63.5,56.6z M63.1,42.8C63.2,42.7,63.1,42.7,63.1,42.8C63.3,42.9,63.3,42.9,63.1,42.8z M50.3,35
	c-0.1-0.1-0.1,0,0-0.1C50.5,35,50.5,34.9,50.3,35z M37.2,42.2C37.1,42.3,37.1,42.3,37.2,42.2C37.2,42.1,37.2,42,37.2,42.2z
	 M36.9,57.2C36.8,57.3,36.9,57.3,36.9,57.2C36.7,57.1,36.7,57.1,36.9,57.2z M49.7,65c0.1,0.1,0.1,0,0,0.1C49.5,65,49.5,65.1,49.7,65
	z M62.8,57.8C62.9,57.7,62.9,57.7,62.8,57.8C62.8,57.9,62.8,58,62.8,57.8z M56.6,38.1c1.8,0,1,0-0.1,0.2
	C56,37.2,55.6,36.6,56.6,38.1z M63.6,49.7c0.9,1.6,0.5,0.8-0.2,0C64.1,48.8,64.4,48.1,63.6,49.7z M57,61.7c-0.9,1.6-0.5,0.8-0.1-0.2
	C58.1,61.6,58.8,61.6,57,61.7z M43.4,61.9c-1.8,0-1,0,0.1-0.2C44,62.8,44.4,63.4,43.4,61.9z M36.4,50.3c-0.9-1.6-0.5-0.8,0.2,0
	C35.9,51.2,35.6,51.9,36.4,50.3z M43,38.3c0.9-1.6,0.5-0.8,0.1,0.2C41.9,38.4,41.2,38.4,43,38.3z M86.4,28c-1.9,0-3.8,0.2-5.7,0.5
	c-7.9-1.2-14.6,0.7-19,7.1c1.7-3.7,4.4-7,8.3-8.5c3.8-1.4,7.2-0.5,10.7,0.9c2.7-1.2,5.2-2.2,8.5-1.8c-1.2,3.1-3.3,4.9-5.5,6.7
	c-0.4,3.7-1.1,7.1-4.2,9.9c-3.1,2.9-7.3,3.7-11.4,3.5c7.8-0.9,12.5-6.1,15.1-13.5C84.5,31.3,85.5,29.7,86.4,28z M87.2,70.5
	c-0.9-1.7-2.1-3.2-3.3-4.6C81,58.5,76,53.6,68.2,52.9c4.1-0.4,8.2,0.3,11.5,3c3.1,2.6,4,6,4.5,9.7c2.4,1.7,4.5,3.4,5.8,6.4
	c-3.3,0.5-5.8-0.4-8.5-1.5c-3.4,1.5-6.7,2.6-10.6,1.3c-4-1.3-6.8-4.5-8.7-8.1c4.7,6.3,11.5,7.8,19.3,6.3
	C83.4,70.5,85.3,70.6,87.2,70.5z M50.8,92.5c1-1.6,1.8-3.4,2.4-5.2c4.9-6.2,6.7-13,3.4-20c2.4,3.3,3.9,7.3,3.1,11.5
	c-0.7,4-3.2,6.5-6.1,8.8c-0.3,3-0.7,5.6-2.7,8.3c-2.1-2.6-2.6-5.3-3-8.1c-3-2.2-5.6-4.5-6.5-8.5c-0.9-4.1,0.5-8.1,2.7-11.6
	c-3.1,7.2-1,13.9,4.2,19.9C49,89.2,49.8,90.9,50.8,92.5z M13.6,72c1.9,0,3.8-0.2,5.7-0.5c7.9,1.2,14.6-0.7,19-7.1
	c-1.7,3.7-4.4,7-8.3,8.5c-3.8,1.4-7.2,0.5-10.7-0.9c-2.7,1.2-5.2,2.2-8.5,1.8c1.2-3.1,3.3-4.9,5.5-6.7c0.4-3.7,1.1-7.1,4.2-9.9
	c3.1-2.9,7.3-3.7,11.4-3.5c-7.8,0.9-12.5,6.1-15.1,13.5C15.5,68.7,14.5,70.3,13.6,72z M12.8,29.5c0.9,1.7,2.1,3.2,3.3,4.6
	C19,41.5,24,46.4,31.8,47.1c-4.1,0.4-8.2-0.3-11.5-3c-3.1-2.6-4-6-4.5-9.7c-2.4-1.7-4.5-3.4-5.8-6.4c3.3-0.5,5.8,0.4,8.5,1.5
	c3.4-1.5,6.7-2.6,10.6-1.3c4,1.3,6.8,4.5,8.7,8.1c-4.7-6.3-11.5-7.8-19.3-6.3C16.6,29.5,14.7,29.4,12.8,29.5z M49.2,7.5
	c-1,1.6-1.8,3.4-2.4,5.2c-4.9,6.2-6.7,13-3.4,20c-2.4-3.3-3.9-7.3-3.1-11.5c0.7-4,3.2-6.5,6.1-8.8c0.3-3,0.7-5.6,2.7-8.3
	c2.1,2.6,2.6,5.3,3,8.1c3,2.2,5.6,4.5,6.5,8.5c0.9,4.1-0.5,8.1-2.7,11.6c3.1-7.2,1-13.9-4.2-19.9C51,10.8,50.2,9.1,49.2,7.5z
	 M76.9,33.8c-0.4,0.2-0.8,0.4-1.2,0.6c0.4-0.3,0.8-0.5,1.3-0.7c-0.4,0.3-0.8,0.6-1.2,0.8C76.1,34.3,76.5,34.1,76.9,33.8z M77.5,65.1
	c-0.4-0.3-0.7-0.5-1.1-0.7c0.5,0.2,0.9,0.4,1.2,0.7c-0.5-0.1-0.9-0.4-1.3-0.7C76.7,64.8,77.1,65,77.5,65.1L77.5,65.1z M50.6,81.4
	c0.1-0.4,0.1-0.9,0-1.3c0.1,0.5,0.1,1,0,1.5c-0.1-0.5-0.1-1-0.1-1.5C50.5,80.5,50.5,80.9,50.6,81.4z M23.1,66.2
	c0.4-0.2,0.8-0.4,1.2-0.6c-0.4,0.3-0.8,0.5-1.3,0.7c0.4-0.3,0.8-0.6,1.2-0.8C23.9,65.7,23.5,65.9,23.1,66.2L23.1,66.2z M22.5,34.9
	c0.4,0.3,0.7,0.5,1.1,0.7c-0.5-0.2-0.9-0.4-1.2-0.7c0.5,0.1,0.9,0.4,1.3,0.7C23.3,35.2,22.9,35,22.5,34.9z M49.4,18.6
	c-0.1,0.4-0.1,0.9,0,1.3c-0.1-0.5-0.1-1,0-1.5c0.1,0.5,0.1,1,0.1,1.5C49.5,19.5,49.5,19.1,49.4,18.6z M62.6,40.3
	c0.1,0,0.2-0.1,0.5-0.3C62.6,40.5,62.8,40.5,62.6,40.3z M47.9,34.3c0.1-0.1,0-0.2,0-0.6C48.1,34.3,48.2,34.2,47.9,34.3L47.9,34.3z
	 M35.4,43.9c-0.1-0.1-0.1-0.1-0.5-0.3C35.5,43.8,35.4,43.7,35.4,43.9z M37.4,59.7c-0.1,0-0.2,0.1-0.5,0.3
	C37.4,59.5,37.2,59.5,37.4,59.7z M52.1,65.7c-0.1,0.1,0,0.2,0,0.6C51.9,65.7,51.8,65.8,52.1,65.7L52.1,65.7z M64.6,56.1
	c0.1,0.1,0.1,0.1,0.5,0.3C64.5,56.2,64.6,56.3,64.6,56.1z M64.4,43.2c0.4,0,0.7-0.2,0.4-0.1C64.3,43.3,64.4,43.5,64.4,43.2z
	 M51.3,34.1c0.2-0.4,0.2-0.7,0.2-0.4C51.3,34.3,51.6,34.3,51.3,34.1z M36.9,41c-0.2-0.3-0.5-0.6-0.3-0.3C37.1,41,37.2,40.8,36.9,41z
	 M35.6,56.8c-0.4,0-0.7,0.2-0.4,0.1C35.7,56.7,35.6,56.5,35.6,56.8z M48.7,65.9c-0.2,0.4-0.2,0.7-0.2,0.4
	C48.7,65.7,48.4,65.7,48.7,65.9z M63.1,59c0.2,0.3,0.5,0.6,0.3,0.3C62.9,59,62.8,59.2,63.1,59z M61.4,41.3c-0.4,0-0.7,0.2-0.4,0.1
	C61.5,41.1,61.3,41,61.4,41.3z M48.1,35.8c-0.2,0.4-0.2,0.7-0.2,0.4C48.1,35.7,47.8,35.7,48.1,35.8z M36.8,44.5
	c0.2,0.3,0.5,0.6,0.3,0.3C36.6,44.5,36.5,44.7,36.8,44.5z M38.6,58.7c0.4,0,0.7-0.2,0.4-0.1C38.5,58.9,38.7,59,38.6,58.7L38.6,58.7z
	 M51.9,64.2c0.2-0.4,0.2-0.7,0.2-0.4C51.9,64.3,52.2,64.3,51.9,64.2z M63.2,55.5c-0.2-0.3-0.5-0.6-0.3-0.3
	C63.4,55.5,63.5,55.3,63.2,55.5L63.2,55.5z M63.2,44.1c-0.1,0-0.2,0.1-0.5,0.3C63.1,44,62.9,43.9,63.2,44.1L63.2,44.1z M51.5,35.6
	c-0.1,0.1,0,0.2,0,0.6C51.3,35.6,51.2,35.8,51.5,35.6z M38.3,41.5c0.1,0.1,0.1,0.1,0.5,0.3C38.2,41.7,38.3,41.8,38.3,41.5z
	 M36.8,55.9c0.1,0,0.2-0.1,0.5-0.3C36.9,56,37.1,56.1,36.8,55.9z M48.5,64.4c0.1-0.1,0-0.2,0-0.6C48.7,64.4,48.8,64.2,48.5,64.4z
	 M61.7,58.5c-0.1-0.1-0.1-0.1-0.5-0.3C61.8,58.3,61.7,58.2,61.7,58.5z M64.6,56.7c1.6,0.2,2.8,1.4,3.1,3c-1.5,0.7-3.2,0.3-4.2-1
	C64.8,57.8,64.5,58.4,64.6,56.7z M51.5,66c0.6,1.5,0.2,3.2-1.1,4.2c-1.3-0.9-1.8-2.6-1.3-4.1C50.7,66.7,50,66.7,51.5,66z M36.9,59.3
	c-1,1.3-2.7,1.7-4.1,1.1c0.2-1.6,1.4-2.9,2.9-3.1C35.9,58.9,35.5,58.3,36.9,59.3z M35.4,43.3c-1.6-0.2-2.8-1.4-3.1-3
	c1.5-0.7,3.2-0.3,4.2,1C35.2,42.2,35.5,41.6,35.4,43.3z M48.5,34c-0.6-1.5-0.2-3.2,1.1-4.2c1.3,0.9,1.8,2.6,1.3,4.1
	C49.3,33.3,50,33.3,48.5,34z M63.1,40.7c1-1.3,2.7-1.7,4.1-1.1c-0.2,1.6-1.4,2.9-2.9,3.1C64.1,41.1,64.5,41.7,63.1,40.7z M58.7,54.8
	c1.5-0.7,3.2-0.3,4.2,1c-1.3,1-1,0.4-1.1,2C60.2,57.6,58.9,56.4,58.7,54.8z M50.2,59.9c1.3,0.9,1.8,2.6,1.3,4.1
	c-1.5-0.7-0.8-0.7-2.3,0C48.5,62.6,48.9,60.9,50.2,59.9L50.2,59.9z M41.5,55.1c-0.2,1.6-1.4,2.9-2.9,3.1c-0.2-1.6,0.2-1.1-1.2-2
	C38.3,55,40,54.5,41.5,55.1z M41.3,45.2c-1.5,0.7-3.2,0.3-4.2-1c1.3-1,1-0.4,1.1-2C39.8,42.4,41.1,43.6,41.3,45.2L41.3,45.2z
	 M49.8,40.1c-1.3-0.9-1.8-2.6-1.3-4.1c1.5,0.7,0.8,0.7,2.3,0C51.5,37.4,51.1,39.1,49.8,40.1z M58.5,44.9c0.2-1.6,1.4-2.9,2.9-3.1
	c0.2,1.6-0.2,1.1,1.2,2C61.7,45,60,45.5,58.5,44.9z M60.6,38.5c1.8-3.8,4.9-6.8,8.7-8.4c3.7-1.6,7.5-1.3,11.4-0.8
	c1.5-0.3,2.9-0.5,4.4-0.6c-0.8,1.3-1.6,2.5-2.6,3.6c-1.3,3.6-2.8,7.1-6,9.7c-3.2,2.6-7.3,4-11.5,3.8c-3.3,7-3.4,0.8,0.1,7.6
	c4.2-0.4,8.3,0.8,11.6,3.3c3.2,2.4,4.9,5.9,6.3,9.5c1,1.1,1.9,2.3,2.7,3.5c-1.5-0.1-3-0.2-4.4-0.4c-3.8,0.7-7.6,1.1-11.4-0.3
	c-3.9-1.5-7.1-4.4-9-8.1c-7.7,0.6-2.4-2.6-6.5,3.9c2.4,3.4,3.4,7.6,2.9,11.7c-0.5,4-2.6,7.2-5,10.2c-0.5,1.4-1.1,2.8-1.7,4.1
	c-0.7-1.3-1.3-2.7-1.9-4c-2.5-3-4.8-6-5.4-10c-0.7-4.1,0.2-8.3,2.5-11.8c-4.4-6.3,1-3.3-6.6-3.7c-1.8,3.8-4.9,6.8-8.7,8.4
	c-3.7,1.6-7.5,1.3-11.4,0.8c-1.5,0.3-2.9,0.5-4.4,0.6c0.8-1.3,1.6-2.5,2.6-3.6c1.3-3.6,2.8-7.1,6-9.7c3.2-2.6,7.3-4,11.5-3.8
	c3.3-7,3.4-0.8-0.1-7.6c-4.2,0.4-8.3-0.8-11.6-3.3c-3.2-2.4-4.9-5.9-6.3-9.5c-1-1.1-1.9-2.3-2.7-3.5c1.5,0.1,3,0.2,4.4,0.4
	c3.8-0.7,7.6-1.1,11.4,0.3c3.9,1.5,7.1,4.4,9,8.1c7.7-0.6,2.4,2.6,6.5-3.9c-2.4-3.4-3.4-7.6-2.9-11.7c0.5-4,2.6-7.2,5-10.2
	c0.5-1.4,1.1-2.8,1.7-4.1c0.7,1.3,1.3,2.7,1.9,4c2.5,3,4.8,6,5.4,10c0.7,4.1-0.2,8.3-2.5,11.8C58.4,41.2,53,38.2,60.6,38.5
	L60.6,38.5z M67.8,39.3c-1.3-2.1,3.1-5.5,5.4-3.2C74.1,39.1,69.1,41.4,67.8,39.3L67.8,39.3z M49.6,29.2c-2.5,0-3.2-5.4-0.1-6.3
	C52.6,23.7,52.1,29.2,49.6,29.2z M31.8,40c-1.2,2.2-6.3,0.1-5.5-3C28.5,34.6,33,37.8,31.8,40L31.8,40z M32.2,60.7
	c1.3,2.1-3.1,5.5-5.4,3.2C25.9,60.9,30.9,58.6,32.2,60.7z M50.4,70.8c2.5,0,3.2,5.4,0.1,6.3C47.4,76.3,47.9,70.8,50.4,70.8z
	 M68.2,60c1.2-2.2,6.3-0.1,5.5,3C71.5,65.4,67,62.2,68.2,60L68.2,60z M71.1,37.3c-1-0.1-1.8,0.5-2.2,1.3
	C69.8,38.7,70.7,38.1,71.1,37.3L71.1,37.3z M49.5,25.4C49,26.2,49,27.2,49.6,28C50.1,27.2,50.1,26.1,49.5,25.4z M28.4,38.1
	c0.4,0.9,1.3,1.4,2.3,1.3C30.3,38.5,29.4,38,28.4,38.1z M28.9,62.7c1,0.1,1.8-0.5,2.2-1.3C30.2,61.3,29.3,61.9,28.9,62.7z
	 M50.5,74.6c0.5-0.8,0.5-1.8-0.1-2.6C49.9,72.8,49.9,73.9,50.5,74.6z M71.6,61.9c-0.4-0.9-1.3-1.4-2.3-1.3
	C69.7,61.5,70.6,62,71.6,61.9z M56.9,45.8c-1-0.1-1.8,0.5-2.2,1.3C55.6,47.3,56.5,46.7,56.9,45.8L56.9,45.8z M49.8,42
	c-0.5,0.8-0.5,1.8,0.1,2.6C50.4,43.8,50.4,42.7,49.8,42z M43,46.1c0.4,0.9,1.3,1.4,2.3,1.3C44.8,46.5,43.9,46,43,46.1L43,46.1z
	 M43.1,54.2c1,0.1,1.8-0.5,2.2-1.3C44.4,52.7,43.5,53.3,43.1,54.2z M50.2,58c0.5-0.8,0.5-1.8-0.1-2.6C49.6,56.2,49.6,57.3,50.2,58z
	 M57,53.9c-0.4-0.9-1.3-1.4-2.3-1.3C55.2,53.5,56.1,54,57,53.9L57,53.9z M52.6,48.4c-1-3,4-5.4,5.4-3.2
	C59.2,47.3,54.9,50.7,52.6,48.4L52.6,48.4z M49.9,47c-3.1-0.7-2.7-6.2-0.1-6.3C52.3,40.7,53,46.1,49.9,47L49.9,47z M47.3,48.5
	c-2.2,2.3-6.7-0.8-5.5-3C43.1,43.3,48.2,45.4,47.3,48.5L47.3,48.5z M47.4,51.6c1,3-4,5.4-5.4,3.2C40.8,52.7,45.1,49.3,47.4,51.6
	L47.4,51.6z M50.1,53c3.1,0.7,2.7,6.2,0.1,6.3C47.7,59.3,47,53.9,50.1,53L50.1,53z M52.7,51.5c2.2-2.3,6.7,0.8,5.5,3
	C56.9,56.7,51.8,54.6,52.7,51.5L52.7,51.5z M78.8,32.6c-2.1-0.1-4.1,1-5,2.9c-0.7-1-1.8-1.7-3-1.9c-1-0.3-2.1-0.2-2.9,0.5
	c-1.2,1.1-1.7,2.7-1.4,4.3c-2-0.6-4.1,0.5-4.3,1.5c0,0.2,0.4,0.6-1.2-0.7c0.4,1.9,0.3,1.4,0,1.3c-1-0.3-3,1.1-3.4,3.2
	c-1-0.8-2.3-1.2-3.6-1c-0.6-1.2-1.6-2.1-2.8-2.5c1.6-1.4,1.7-3.8,0.9-4.5c-0.2-0.2-0.7,0,1.1-0.7c-1.8-0.6-1.3-0.5-1.2-0.6
	c0.8-0.7,0.6-3.1-1.1-4.5c1.5-0.6,2.6-1.9,2.9-3.5c0.1-1.7-1.2-3.9-4.4-4.2c1.1-1.8,1-4.1-0.2-5.8c-1.2,1.7-1.2,4,0,5.8
	c-1.2,0.1-2.4,0.7-3.2,1.7c-0.8,0.7-1.2,1.7-1,2.8c0.4,1.6,1.5,2.8,3,3.3c-1.6,1.4-1.7,3.8-0.9,4.5c0.2,0.2,0.7,0-1.1,0.7
	c1.8,0.6,1.3,0.5,1.2,0.6c-0.8,0.7-0.6,3.1,1.1,4.5c-1.2,0.5-2.2,1.4-2.7,2.6C44.3,42.7,43,43.1,42,44c-0.4-2.1-2.5-3.4-3.5-3
	c-0.2,0.1-0.3,0.6,0-1.3c-1.4,1.3-1.1,0.9-1.1,0.7c-0.2-1-2.4-2.1-4.4-1.3c0.3-1.6-0.3-3.2-1.5-4.3c-1.4-1-4-0.9-5.9,1.7
	c-1-1.8-3-2.9-5.1-2.7c0.9,1.9,2.9,3,5,2.9c-0.5,1.1-0.6,2.4-0.1,3.6c0.2,1,0.9,1.9,1.9,2.3c1.5,0.5,3.2,0.1,4.4-1
	c0.4,2.1,2.5,3.4,3.5,3c0.2-0.1,0.3-0.6,0,1.3c1.4-1.3,1.1-0.9,1.1-0.7c0.2,1,2.4,2.1,4.4,1.3c-0.2,1.3,0.1,2.6,0.9,3.7
	c-0.7,1.1-1,2.4-0.8,3.7c-2-0.6-4.1,0.5-4.3,1.5c0,0.2,0.4,0.6-1.2-0.7c0.4,1.9,0.3,1.4,0,1.3c-1-0.3-3,1.1-3.4,3.2
	c-1.2-1-2.9-1.3-4.5-0.8c-1.5,0.7-2.7,3-1.5,5.9c-2.1,0-4,1.2-4.9,3.1c2.1,0.1,4.1-1,5-2.9c0.7,1,1.8,1.7,3,1.9
	c1,0.3,2.1,0.2,2.9-0.5c1.2-1.1,1.7-2.7,1.4-4.3c2,0.6,4.1-0.5,4.3-1.5c0-0.2-0.4-0.6,1.2,0.7c-0.4-1.9-0.3-1.4,0-1.3
	c1,0.3,3-1.1,3.4-3.2c1,0.8,2.3,1.2,3.6,1c0.6,1.2,1.6,2.1,2.8,2.5c-1.6,1.4-1.7,3.8-0.9,4.5c0.2,0.2,0.7,0-1.1,0.7
	c1.8,0.6,1.3,0.5,1.2,0.6c-0.8,0.7-0.6,3.1,1.1,4.5c-1.5,0.6-2.6,1.9-2.9,3.5c-0.1,1.7,1.2,3.9,4.4,4.2c-1.1,1.8-1,4.1,0.2,5.8
	c1.2-1.7,1.2-4,0-5.8c1.2-0.1,2.4-0.7,3.2-1.7c0.8-0.7,1.2-1.7,1-2.8c-0.4-1.6-1.5-2.8-3-3.3c1.6-1.4,1.7-3.8,0.9-4.5
	c-0.2-0.2-0.7,0,1.1-0.7c-1.8-0.6-1.3-0.5-1.2-0.6c0.8-0.7,0.6-3.1-1.1-4.5c1.2-0.5,2.2-1.4,2.7-2.6c1.3,0.1,2.6-0.3,3.6-1.2
	c0.4,2.1,2.5,3.4,3.5,3c0.2-0.1,0.3-0.6,0,1.3c1.4-1.3,1.1-0.9,1.1-0.7c0.2,1,2.4,2.1,4.4,1.3c-0.3,1.6,0.3,3.2,1.5,4.3
	c1.4,1,4,0.9,5.9-1.7c1,1.8,3,2.9,5.1,2.7c-0.9-1.9-2.9-3-5-2.9c0.5-1.1,0.6-2.4,0.1-3.6c-0.2-1-0.9-1.9-1.9-2.3
	c-1.5-0.5-3.2-0.1-4.4,1c-0.4-2.1-2.5-3.4-3.5-3c-0.2,0.1-0.3,0.6,0-1.3c-1.4,1.3-1.1,0.9-1.1,0.7c-0.2-1-2.4-2.1-4.4-1.3
	c0.2-1.3-0.1-2.6-0.9-3.7c0.7-1.1,1-2.4,0.8-3.7c2,0.6,4.1-0.5,4.3-1.5c0-0.2-0.4-0.6,1.2,0.7c-0.4-1.9-0.3-1.4,0-1.3
	c1,0.3,3-1.1,3.4-3.2c1.2,1,2.9,1.3,4.5,0.8c1.5-0.7,2.7-3,1.5-5.9C76.1,35.7,78,34.5,78.8,32.6z M51.8,48.8c-1.9,0-0.7,0.6-1.7-0.9
	C52,47.5,51,47,51.8,48.8z M49.8,47.9c-1,1.6,0.2,0.9-1.7,1C48.9,47,47.9,47.6,49.8,47.9z M48.1,49.1c0.9,1.6,0.9,0.3,0,1.9
	C46.9,49.5,46.9,50.6,48.1,49.1L48.1,49.1z M48.2,51.2c1.9,0,0.7-0.6,1.7,0.9C48,52.5,49,53,48.2,51.2z M50.2,52.1
	c1-1.6-0.2-0.9,1.7-1C51.1,53,52.1,52.4,50.2,52.1L50.2,52.1z M51.9,50.9c-0.9-1.6-0.9-0.3,0-1.9C53.1,50.5,53.1,49.4,51.9,50.9z"/>
</svg>
