<?xml version="1.0" encoding="utf-8"?>
<!-- Generator: Adobe Illustrator 23.0.6, SVG Export Plug-In . SVG Version: 6.00 Build 0)  -->
<svg version="1.1" id="Layer_1" xmlns="http://www.w3.org/2000/svg" xmlns:xlink="http://www.w3.org/1999/xlink" x="0px" y="0px"
	 viewBox="0 0 32 40" style="enable-background:new 0 0 32 40;" xml:space="preserve">
<style type="text/css">
	.st0{fill:#F16A7A;}
</style>
<g>
	<path class="st0" d="M14.5,1c-0.6,0-1,0.4-1,1s0.4,1,1,1c7.2,0,13,5.8,13,13s-5.8,13-13,13c-5.5,0-10-4.5-10-10S9,9,14.5,9
		c3.9,0,7,3.1,7,7s-3.1,7-7,7c-2.2,0-4-1.8-4-4s1.8-4,4-4c0.6,0,1,0.4,1,1s-0.4,1-1,1c-0.6,0-1,0.4-1,1s0.4,1,1,1c1.7,0,3-1.3,3-3
		s-1.3-3-3-3c-3.3,0-6,2.7-6,6s2.7,6,6,6c5,0,9-4,9-9s-4-9-9-9c-6.6,0-12,5.4-12,12s5.4,12,12,12c8.3,0,15-6.7,15-15S22.8,1,14.5,1z
		"/>
</g>
</svg>
