<?xml version="1.0" encoding="utf-8"?>
<!-- Generator: Adobe Illustrator 23.0.6, SVG Export Plug-In . SVG Version: 6.00 Build 0)  -->
<svg version="1.1" id="Layer_1" xmlns="http://www.w3.org/2000/svg" xmlns:xlink="http://www.w3.org/1999/xlink" x="0px" y="0px"
	 viewBox="0 0 100 125" style="enable-background:new 0 0 100 125;" xml:space="preserve">
<style type="text/css">
	.st0{fill:#FFF800;}
	.st1{fill:#18249B;}
</style>
<g>
	<polygon class="st0" points="46.4,31.1 50,29.2 53.5,31.1 52.9,27.1 55.7,24.3 51.8,23.7 50,20.2 48.2,23.7 44.3,24.3 47.1,27.1 	
		"/>
	<polygon class="st0" points="53.6,61.4 50.1,63.2 46.6,61.3 47.2,65.3 44.3,68 48.2,68.7 49.9,72.3 51.8,68.7 55.7,68.2 52.9,65.4 
			"/>
	<polygon class="st0" points="38,31.1 39.3,34.9 41.5,31.5 45.5,31.3 42.9,28.2 44,24.4 40.3,25.9 37,23.6 37.2,27.6 34.1,30.1 	"/>
	<polygon class="st0" points="62.1,61.4 60.8,57.6 58.6,60.9 54.6,61 57.1,64.1 55.9,68 59.7,66.6 63,68.8 62.8,64.8 66,62.4 	"/>
	<polygon class="st0" points="28.2,40.2 32,39.2 35.1,41.7 35.3,37.7 38.6,35.6 34.9,34.2 33.9,30.3 31.4,33.4 27.4,33.2 29.6,36.5 
			"/>
	<polygon class="st0" points="71.9,52.2 68,53.3 65,50.7 64.8,54.7 61.4,56.8 65.1,58.2 66,62.1 68.6,59 72.5,59.3 70.4,55.9 	"/>
	<polygon class="st0" points="28.1,52 30.9,49.1 34.8,49.8 33,46.2 34.8,42.7 30.9,43.4 28.1,40.5 27.5,44.4 23.9,46.2 27.5,48 	"/>
	<polygon class="st0" points="69.1,49.1 71.8,52 72.5,48 76.1,46.3 72.5,44.5 72,40.5 69.1,43.3 65.2,42.6 67,46.2 65.1,49.7 	"/>
	<polygon class="st0" points="38.6,56.9 35.3,54.7 35.1,50.7 32,53.3 28.2,52.2 29.6,55.9 27.4,59.3 31.4,59 33.9,62.1 34.9,58.3 	
		"/>
	<polygon class="st0" points="61.4,35.5 64.7,37.6 64.8,41.7 67.9,39.1 71.8,40.3 70.3,36.5 72.6,33.2 68.6,33.4 66.2,30.3 
		65.1,34.1 	"/>
	<polygon class="st0" points="45.5,61.1 41.5,61 39.4,57.6 38,61.3 34.1,62.3 37.2,64.8 37,68.8 40.3,66.6 44,68.1 42.9,64.2 	"/>
	<polygon class="st0" points="54.4,31.2 58.4,31.4 60.5,34.9 62,31.1 65.9,30.2 62.8,27.7 63.1,23.7 59.7,25.8 56,24.3 57.1,28.2 	
		"/>
</g>
<g>
	<polygon class="st1" points="44.5,22.8 50,19.9 55.5,22.8 54.4,16.7 58.9,12.3 52.7,11.4 50,5.9 47.3,11.4 41.1,12.3 45.6,16.7 	
		"/>
	<polygon class="st1" points="55.6,69.8 50.1,72.6 44.7,69.6 45.6,75.7 41.1,80 47.2,81 49.9,86.6 52.7,81 58.9,80.2 54.5,75.9 	"/>
	<polygon class="st1" points="31.4,22.8 33.5,28.7 36.8,23.4 43,23.2 39.1,18.4 40.7,12.4 35,14.7 29.8,11.3 30.2,17.5 25.4,21.3 	
		"/>
	<polygon class="st1" points="68.7,69.6 66.7,63.8 63.3,69 57.1,69.1 61,74 59.2,79.9 65,77.7 70.1,81.2 69.8,75 74.7,71.2 	"/>
	<polygon class="st1" points="16.2,37 22.2,35.3 26.9,39.3 27.2,33.1 32.4,29.8 26.6,27.6 25.1,21.6 21.3,26.5 15.1,26 18.5,31.2 	
		"/>
	<polygon class="st1" points="83.9,55.5 77.9,57.1 73.2,53.1 72.9,59.3 67.6,62.5 73.4,64.8 74.8,70.8 78.7,66 84.9,66.5 81.5,61.3 
			"/>
	<polygon class="st1" points="16.1,55.1 20.4,50.7 26.5,51.7 23.7,46.2 26.6,40.7 20.4,41.8 16.1,37.3 15.2,43.5 9.7,46.2 15.2,49 	
		"/>
	<polygon class="st1" points="79.5,50.6 83.8,55.1 84.7,49 90.3,46.3 84.8,43.5 84,37.3 79.6,41.7 73.5,40.6 76.3,46.1 73.4,51.6 	
		"/>
	<polygon class="st1" points="32.4,62.7 27.2,59.4 27,53.2 22.2,57.2 16.2,55.5 18.5,61.2 15.1,66.4 21.2,66 25.1,70.9 26.6,64.9 	
		"/>
	<polygon class="st1" points="67.6,29.6 72.8,33 72.9,39.2 77.7,35.3 83.7,37 81.5,31.2 85,26.1 78.8,26.4 75,21.5 73.4,27.5 	"/>
	<polygon class="st1" points="43,69.3 36.8,69 33.5,63.8 31.4,69.6 25.4,71.1 30.2,75 29.8,81.2 35,77.7 40.7,80 39.1,74.1 	"/>
	<polygon class="st1" points="56.9,23 63.1,23.4 66.3,28.6 68.5,22.9 74.6,21.4 69.8,17.5 70.3,11.3 65,14.7 59.3,12.3 60.9,18.3 	
		"/>
</g>
</svg>
